<svg width="66" height="13" viewBox="0 0 66 13" fill="none" xmlns="http://www.w3.org/2000/svg">
<mask id="path-1-outside-1_1972_5045" maskUnits="userSpaceOnUse" x="0" y="0" width="66" height="13" fill="black">
<rect fill="white" width="66" height="13"/>
<path d="M8.44 6.67C9.02 6.86 9.48 7.18 9.82 7.63C10.16 8.07 10.33 8.62 10.33 9.28C10.33 10.19 9.98 10.895 9.28 11.395C8.58 11.885 7.56 12.13 6.22 12.13H1V1.63H5.92C7.16 1.63 8.115 1.875 8.785 2.365C9.455 2.845 9.79 3.51 9.79 4.36C9.79 4.88 9.67 5.34 9.43 5.74C9.19 6.14 8.86 6.45 8.44 6.67ZM2.95 3.16V6.055H5.71C6.39 6.055 6.91 5.935 7.27 5.695C7.64 5.445 7.825 5.085 7.825 4.615C7.825 4.135 7.64 3.775 7.27 3.535C6.91 3.285 6.39 3.16 5.71 3.16H2.95ZM6.1 10.6C7.61 10.6 8.365 10.095 8.365 9.085C8.365 8.075 7.61 7.57 6.1 7.57H2.95V10.6H6.1Z"/>
<path d="M15.7711 10.645C16.6411 10.645 17.3661 10.355 17.9461 9.775L18.9361 10.93C18.5861 11.36 18.1361 11.685 17.5861 11.905C17.0361 12.125 16.4161 12.235 15.7261 12.235C14.8461 12.235 14.0711 12.06 13.4011 11.71C12.7311 11.36 12.2111 10.875 11.8411 10.255C11.4811 9.625 11.3011 8.915 11.3011 8.125C11.3011 7.345 11.4761 6.645 11.8261 6.025C12.1861 5.395 12.6761 4.905 13.2961 4.555C13.9261 4.205 14.6361 4.03 15.4261 4.03C16.1761 4.03 16.8561 4.195 17.4661 4.525C18.0861 4.845 18.5761 5.31 18.9361 5.92C19.2961 6.52 19.4761 7.225 19.4761 8.035L13.3411 9.235C13.5311 9.695 13.8361 10.045 14.2561 10.285C14.6761 10.525 15.1811 10.645 15.7711 10.645ZM15.4261 5.53C14.7361 5.53 14.1761 5.755 13.7461 6.205C13.3261 6.655 13.1161 7.26 13.1161 8.02V8.035L17.6461 7.165C17.5161 6.675 17.2511 6.28 16.8511 5.98C16.4611 5.68 15.9861 5.53 15.4261 5.53Z"/>
<path d="M25.2475 4.03C26.2575 4.03 27.0675 4.325 27.6775 4.915C28.2875 5.505 28.5925 6.38 28.5925 7.54V12.13H26.7175V7.78C26.7175 7.08 26.5525 6.555 26.2225 6.205C25.8925 5.845 25.4225 5.665 24.8125 5.665C24.1225 5.665 23.5775 5.875 23.1775 6.295C22.7775 6.705 22.5775 7.3 22.5775 8.08V12.13H20.7025V4.12H22.4875V5.155C22.7975 4.785 23.1875 4.505 23.6575 4.315C24.1275 4.125 24.6575 4.03 25.2475 4.03Z"/>
<path d="M34.5843 10.645C35.4543 10.645 36.1793 10.355 36.7593 9.775L37.7493 10.93C37.3993 11.36 36.9493 11.685 36.3993 11.905C35.8493 12.125 35.2293 12.235 34.5393 12.235C33.6593 12.235 32.8843 12.06 32.2143 11.71C31.5443 11.36 31.0243 10.875 30.6543 10.255C30.2943 9.625 30.1143 8.915 30.1143 8.125C30.1143 7.345 30.2893 6.645 30.6393 6.025C30.9993 5.395 31.4893 4.905 32.1093 4.555C32.7393 4.205 33.4493 4.03 34.2393 4.03C34.9893 4.03 35.6693 4.195 36.2793 4.525C36.8993 4.845 37.3893 5.31 37.7493 5.92C38.1093 6.52 38.2893 7.225 38.2893 8.035L32.1543 9.235C32.3443 9.695 32.6493 10.045 33.0693 10.285C33.4893 10.525 33.9943 10.645 34.5843 10.645ZM34.2393 5.53C33.5493 5.53 32.9893 5.755 32.5593 6.205C32.1393 6.655 31.9293 7.26 31.9293 8.02V8.035L36.4593 7.165C36.3293 6.675 36.0643 6.28 35.6643 5.98C35.2743 5.68 34.7993 5.53 34.2393 5.53Z"/>
<path d="M43.6307 10.645C44.5007 10.645 45.2257 10.355 45.8057 9.775L46.7957 10.93C46.4457 11.36 45.9957 11.685 45.4457 11.905C44.8957 12.125 44.2757 12.235 43.5857 12.235C42.7057 12.235 41.9307 12.06 41.2607 11.71C40.5907 11.36 40.0707 10.875 39.7007 10.255C39.3407 9.625 39.1607 8.915 39.1607 8.125C39.1607 7.345 39.3357 6.645 39.6857 6.025C40.0457 5.395 40.5357 4.905 41.1557 4.555C41.7857 4.205 42.4957 4.03 43.2857 4.03C44.0357 4.03 44.7157 4.195 45.3257 4.525C45.9457 4.845 46.4357 5.31 46.7957 5.92C47.1557 6.52 47.3357 7.225 47.3357 8.035L41.2007 9.235C41.3907 9.695 41.6957 10.045 42.1157 10.285C42.5357 10.525 43.0407 10.645 43.6307 10.645ZM43.2857 5.53C42.5957 5.53 42.0357 5.755 41.6057 6.205C41.1857 6.655 40.9757 7.26 40.9757 8.02V8.035L45.5057 7.165C45.3757 6.675 45.1107 6.28 44.7107 5.98C44.3207 5.68 43.8457 5.53 43.2857 5.53Z"/>
<path d="M56.7122 1V12.13H54.9121V11.095C54.6021 11.475 54.2171 11.76 53.7571 11.95C53.3071 12.14 52.8071 12.235 52.2571 12.235C51.4871 12.235 50.7921 12.065 50.1721 11.725C49.5621 11.385 49.0821 10.905 48.7321 10.285C48.3821 9.655 48.2071 8.935 48.2071 8.125C48.2071 7.315 48.3821 6.6 48.7321 5.98C49.0821 5.36 49.5621 4.88 50.1721 4.54C50.7921 4.2 51.4871 4.03 52.2571 4.03C52.7871 4.03 53.2722 4.12 53.7122 4.3C54.1522 4.48 54.5272 4.75 54.8372 5.11V1H56.7122ZM52.4821 10.63C52.9321 10.63 53.3372 10.53 53.6972 10.33C54.0572 10.12 54.3421 9.825 54.5521 9.445C54.7621 9.065 54.8671 8.625 54.8671 8.125C54.8671 7.625 54.7621 7.185 54.5521 6.805C54.3421 6.425 54.0572 6.135 53.6972 5.935C53.3372 5.725 52.9321 5.62 52.4821 5.62C52.0321 5.62 51.6272 5.725 51.2672 5.935C50.9072 6.135 50.6221 6.425 50.4121 6.805C50.2021 7.185 50.0971 7.625 50.0971 8.125C50.0971 8.625 50.2021 9.065 50.4121 9.445C50.6221 9.825 50.9072 10.12 51.2672 10.33C51.6272 10.53 52.0321 10.63 52.4821 10.63Z"/>
<path d="M61.37 12.235C60.72 12.235 60.085 12.15 59.465 11.98C58.845 11.81 58.35 11.595 57.98 11.335L58.7 9.91C59.06 10.15 59.49 10.345 59.99 10.495C60.5 10.635 61 10.705 61.49 10.705C62.61 10.705 63.17 10.41 63.17 9.82C63.17 9.54 63.025 9.345 62.735 9.235C62.455 9.125 62 9.02 61.37 8.92C60.71 8.82 60.17 8.705 59.75 8.575C59.34 8.445 58.98 8.22 58.67 7.9C58.37 7.57 58.22 7.115 58.22 6.535C58.22 5.775 58.535 5.17 59.165 4.72C59.805 4.26 60.665 4.03 61.745 4.03C62.295 4.03 62.845 4.095 63.395 4.225C63.945 4.345 64.395 4.51 64.745 4.72L64.025 6.145C63.345 5.745 62.58 5.545 61.73 5.545C61.18 5.545 60.76 5.63 60.47 5.8C60.19 5.96 60.05 6.175 60.05 6.445C60.05 6.745 60.2 6.96 60.5 7.09C60.81 7.21 61.285 7.325 61.925 7.435C62.565 7.535 63.09 7.65 63.5 7.78C63.91 7.91 64.26 8.13 64.55 8.44C64.85 8.75 65 9.19 65 9.76C65 10.51 64.675 11.11 64.025 11.56C63.375 12.01 62.49 12.235 61.37 12.235Z"/>
</mask>
<path d="M8.44 6.67C9.02 6.86 9.48 7.18 9.82 7.63C10.16 8.07 10.33 8.62 10.33 9.28C10.33 10.19 9.98 10.895 9.28 11.395C8.58 11.885 7.56 12.13 6.22 12.13H1V1.63H5.92C7.16 1.63 8.115 1.875 8.785 2.365C9.455 2.845 9.79 3.51 9.79 4.36C9.79 4.88 9.67 5.34 9.43 5.74C9.19 6.14 8.86 6.45 8.44 6.67ZM2.95 3.16V6.055H5.71C6.39 6.055 6.91 5.935 7.27 5.695C7.64 5.445 7.825 5.085 7.825 4.615C7.825 4.135 7.64 3.775 7.27 3.535C6.91 3.285 6.39 3.16 5.71 3.16H2.95ZM6.1 10.6C7.61 10.6 8.365 10.095 8.365 9.085C8.365 8.075 7.61 7.57 6.1 7.57H2.95V10.6H6.1Z" fill="black"/>
<path d="M15.7711 10.645C16.6411 10.645 17.3661 10.355 17.9461 9.775L18.9361 10.93C18.5861 11.36 18.1361 11.685 17.5861 11.905C17.0361 12.125 16.4161 12.235 15.7261 12.235C14.8461 12.235 14.0711 12.06 13.4011 11.71C12.7311 11.36 12.2111 10.875 11.8411 10.255C11.4811 9.625 11.3011 8.915 11.3011 8.125C11.3011 7.345 11.4761 6.645 11.8261 6.025C12.1861 5.395 12.6761 4.905 13.2961 4.555C13.9261 4.205 14.6361 4.03 15.4261 4.03C16.1761 4.03 16.8561 4.195 17.4661 4.525C18.0861 4.845 18.5761 5.31 18.9361 5.92C19.2961 6.52 19.4761 7.225 19.4761 8.035L13.3411 9.235C13.5311 9.695 13.8361 10.045 14.2561 10.285C14.6761 10.525 15.1811 10.645 15.7711 10.645ZM15.4261 5.53C14.7361 5.53 14.1761 5.755 13.7461 6.205C13.3261 6.655 13.1161 7.26 13.1161 8.02V8.035L17.6461 7.165C17.5161 6.675 17.2511 6.28 16.8511 5.98C16.4611 5.68 15.9861 5.53 15.4261 5.53Z" fill="black"/>
<path d="M25.2475 4.03C26.2575 4.03 27.0675 4.325 27.6775 4.915C28.2875 5.505 28.5925 6.38 28.5925 7.54V12.13H26.7175V7.78C26.7175 7.08 26.5525 6.555 26.2225 6.205C25.8925 5.845 25.4225 5.665 24.8125 5.665C24.1225 5.665 23.5775 5.875 23.1775 6.295C22.7775 6.705 22.5775 7.3 22.5775 8.08V12.13H20.7025V4.12H22.4875V5.155C22.7975 4.785 23.1875 4.505 23.6575 4.315C24.1275 4.125 24.6575 4.03 25.2475 4.03Z" fill="black"/>
<path d="M34.5843 10.645C35.4543 10.645 36.1793 10.355 36.7593 9.775L37.7493 10.93C37.3993 11.36 36.9493 11.685 36.3993 11.905C35.8493 12.125 35.2293 12.235 34.5393 12.235C33.6593 12.235 32.8843 12.06 32.2143 11.71C31.5443 11.36 31.0243 10.875 30.6543 10.255C30.2943 9.625 30.1143 8.915 30.1143 8.125C30.1143 7.345 30.2893 6.645 30.6393 6.025C30.9993 5.395 31.4893 4.905 32.1093 4.555C32.7393 4.205 33.4493 4.03 34.2393 4.03C34.9893 4.03 35.6693 4.195 36.2793 4.525C36.8993 4.845 37.3893 5.31 37.7493 5.92C38.1093 6.52 38.2893 7.225 38.2893 8.035L32.1543 9.235C32.3443 9.695 32.6493 10.045 33.0693 10.285C33.4893 10.525 33.9943 10.645 34.5843 10.645ZM34.2393 5.53C33.5493 5.53 32.9893 5.755 32.5593 6.205C32.1393 6.655 31.9293 7.26 31.9293 8.02V8.035L36.4593 7.165C36.3293 6.675 36.0643 6.28 35.6643 5.98C35.2743 5.68 34.7993 5.53 34.2393 5.53Z" fill="black"/>
<path d="M43.6307 10.645C44.5007 10.645 45.2257 10.355 45.8057 9.775L46.7957 10.93C46.4457 11.36 45.9957 11.685 45.4457 11.905C44.8957 12.125 44.2757 12.235 43.5857 12.235C42.7057 12.235 41.9307 12.06 41.2607 11.71C40.5907 11.36 40.0707 10.875 39.7007 10.255C39.3407 9.625 39.1607 8.915 39.1607 8.125C39.1607 7.345 39.3357 6.645 39.6857 6.025C40.0457 5.395 40.5357 4.905 41.1557 4.555C41.7857 4.205 42.4957 4.03 43.2857 4.03C44.0357 4.03 44.7157 4.195 45.3257 4.525C45.9457 4.845 46.4357 5.31 46.7957 5.92C47.1557 6.52 47.3357 7.225 47.3357 8.035L41.2007 9.235C41.3907 9.695 41.6957 10.045 42.1157 10.285C42.5357 10.525 43.0407 10.645 43.6307 10.645ZM43.2857 5.53C42.5957 5.53 42.0357 5.755 41.6057 6.205C41.1857 6.655 40.9757 7.26 40.9757 8.02V8.035L45.5057 7.165C45.3757 6.675 45.1107 6.28 44.7107 5.98C44.3207 5.68 43.8457 5.53 43.2857 5.53Z" fill="black"/>
<path d="M56.7122 1V12.13H54.9121V11.095C54.6021 11.475 54.2171 11.76 53.7571 11.95C53.3071 12.14 52.8071 12.235 52.2571 12.235C51.4871 12.235 50.7921 12.065 50.1721 11.725C49.5621 11.385 49.0821 10.905 48.7321 10.285C48.3821 9.655 48.2071 8.935 48.2071 8.125C48.2071 7.315 48.3821 6.6 48.7321 5.98C49.0821 5.36 49.5621 4.88 50.1721 4.54C50.7921 4.2 51.4871 4.03 52.2571 4.03C52.7871 4.03 53.2722 4.12 53.7122 4.3C54.1522 4.48 54.5272 4.75 54.8372 5.11V1H56.7122ZM52.4821 10.63C52.9321 10.63 53.3372 10.53 53.6972 10.33C54.0572 10.12 54.3421 9.825 54.5521 9.445C54.7621 9.065 54.8671 8.625 54.8671 8.125C54.8671 7.625 54.7621 7.185 54.5521 6.805C54.3421 6.425 54.0572 6.135 53.6972 5.935C53.3372 5.725 52.9321 5.62 52.4821 5.62C52.0321 5.62 51.6272 5.725 51.2672 5.935C50.9072 6.135 50.6221 6.425 50.4121 6.805C50.2021 7.185 50.0971 7.625 50.0971 8.125C50.0971 8.625 50.2021 9.065 50.4121 9.445C50.6221 9.825 50.9072 10.12 51.2672 10.33C51.6272 10.53 52.0321 10.63 52.4821 10.63Z" fill="black"/>
<path d="M61.37 12.235C60.72 12.235 60.085 12.15 59.465 11.98C58.845 11.81 58.35 11.595 57.98 11.335L58.7 9.91C59.06 10.15 59.49 10.345 59.99 10.495C60.5 10.635 61 10.705 61.49 10.705C62.61 10.705 63.17 10.41 63.17 9.82C63.17 9.54 63.025 9.345 62.735 9.235C62.455 9.125 62 9.02 61.37 8.92C60.71 8.82 60.17 8.705 59.75 8.575C59.34 8.445 58.98 8.22 58.67 7.9C58.37 7.57 58.22 7.115 58.22 6.535C58.22 5.775 58.535 5.17 59.165 4.72C59.805 4.26 60.665 4.03 61.745 4.03C62.295 4.03 62.845 4.095 63.395 4.225C63.945 4.345 64.395 4.51 64.745 4.72L64.025 6.145C63.345 5.745 62.58 5.545 61.73 5.545C61.18 5.545 60.76 5.63 60.47 5.8C60.19 5.96 60.05 6.175 60.05 6.445C60.05 6.745 60.2 6.96 60.5 7.09C60.81 7.21 61.285 7.325 61.925 7.435C62.565 7.535 63.09 7.65 63.5 7.78C63.91 7.91 64.26 8.13 64.55 8.44C64.85 8.75 65 9.19 65 9.76C65 10.51 64.675 11.11 64.025 11.56C63.375 12.01 62.49 12.235 61.37 12.235Z" fill="black"/>
<path d="M8.44 6.67C9.02 6.86 9.48 7.18 9.82 7.63C10.16 8.07 10.33 8.62 10.33 9.28C10.33 10.19 9.98 10.895 9.28 11.395C8.58 11.885 7.56 12.13 6.22 12.13H1V1.63H5.92C7.16 1.63 8.115 1.875 8.785 2.365C9.455 2.845 9.79 3.51 9.79 4.36C9.79 4.88 9.67 5.34 9.43 5.74C9.19 6.14 8.86 6.45 8.44 6.67ZM2.95 3.16V6.055H5.71C6.39 6.055 6.91 5.935 7.27 5.695C7.64 5.445 7.825 5.085 7.825 4.615C7.825 4.135 7.64 3.775 7.27 3.535C6.91 3.285 6.39 3.16 5.71 3.16H2.95ZM6.1 10.6C7.61 10.6 8.365 10.095 8.365 9.085C8.365 8.075 7.61 7.57 6.1 7.57H2.95V10.6H6.1Z" stroke="black" stroke-width="0.36" mask="url(#path-1-outside-1_1972_5045)"/>
<path d="M15.7711 10.645C16.6411 10.645 17.3661 10.355 17.9461 9.775L18.9361 10.93C18.5861 11.36 18.1361 11.685 17.5861 11.905C17.0361 12.125 16.4161 12.235 15.7261 12.235C14.8461 12.235 14.0711 12.06 13.4011 11.71C12.7311 11.36 12.2111 10.875 11.8411 10.255C11.4811 9.625 11.3011 8.915 11.3011 8.125C11.3011 7.345 11.4761 6.645 11.8261 6.025C12.1861 5.395 12.6761 4.905 13.2961 4.555C13.9261 4.205 14.6361 4.03 15.4261 4.03C16.1761 4.03 16.8561 4.195 17.4661 4.525C18.0861 4.845 18.5761 5.31 18.9361 5.92C19.2961 6.52 19.4761 7.225 19.4761 8.035L13.3411 9.235C13.5311 9.695 13.8361 10.045 14.2561 10.285C14.6761 10.525 15.1811 10.645 15.7711 10.645ZM15.4261 5.53C14.7361 5.53 14.1761 5.755 13.7461 6.205C13.3261 6.655 13.1161 7.26 13.1161 8.02V8.035L17.6461 7.165C17.5161 6.675 17.2511 6.28 16.8511 5.98C16.4611 5.68 15.9861 5.53 15.4261 5.53Z" stroke="black" stroke-width="0.36" mask="url(#path-1-outside-1_1972_5045)"/>
<path d="M25.2475 4.03C26.2575 4.03 27.0675 4.325 27.6775 4.915C28.2875 5.505 28.5925 6.38 28.5925 7.54V12.13H26.7175V7.78C26.7175 7.08 26.5525 6.555 26.2225 6.205C25.8925 5.845 25.4225 5.665 24.8125 5.665C24.1225 5.665 23.5775 5.875 23.1775 6.295C22.7775 6.705 22.5775 7.3 22.5775 8.08V12.13H20.7025V4.12H22.4875V5.155C22.7975 4.785 23.1875 4.505 23.6575 4.315C24.1275 4.125 24.6575 4.03 25.2475 4.03Z" stroke="black" stroke-width="0.36" mask="url(#path-1-outside-1_1972_5045)"/>
<path d="M34.5843 10.645C35.4543 10.645 36.1793 10.355 36.7593 9.775L37.7493 10.93C37.3993 11.36 36.9493 11.685 36.3993 11.905C35.8493 12.125 35.2293 12.235 34.5393 12.235C33.6593 12.235 32.8843 12.06 32.2143 11.71C31.5443 11.36 31.0243 10.875 30.6543 10.255C30.2943 9.625 30.1143 8.915 30.1143 8.125C30.1143 7.345 30.2893 6.645 30.6393 6.025C30.9993 5.395 31.4893 4.905 32.1093 4.555C32.7393 4.205 33.4493 4.03 34.2393 4.03C34.9893 4.03 35.6693 4.195 36.2793 4.525C36.8993 4.845 37.3893 5.31 37.7493 5.92C38.1093 6.52 38.2893 7.225 38.2893 8.035L32.1543 9.235C32.3443 9.695 32.6493 10.045 33.0693 10.285C33.4893 10.525 33.9943 10.645 34.5843 10.645ZM34.2393 5.53C33.5493 5.53 32.9893 5.755 32.5593 6.205C32.1393 6.655 31.9293 7.26 31.9293 8.02V8.035L36.4593 7.165C36.3293 6.675 36.0643 6.28 35.6643 5.98C35.2743 5.68 34.7993 5.53 34.2393 5.53Z" stroke="black" stroke-width="0.36" mask="url(#path-1-outside-1_1972_5045)"/>
<path d="M43.6307 10.645C44.5007 10.645 45.2257 10.355 45.8057 9.775L46.7957 10.93C46.4457 11.36 45.9957 11.685 45.4457 11.905C44.8957 12.125 44.2757 12.235 43.5857 12.235C42.7057 12.235 41.9307 12.06 41.2607 11.71C40.5907 11.36 40.0707 10.875 39.7007 10.255C39.3407 9.625 39.1607 8.915 39.1607 8.125C39.1607 7.345 39.3357 6.645 39.6857 6.025C40.0457 5.395 40.5357 4.905 41.1557 4.555C41.7857 4.205 42.4957 4.03 43.2857 4.03C44.0357 4.03 44.7157 4.195 45.3257 4.525C45.9457 4.845 46.4357 5.31 46.7957 5.92C47.1557 6.52 47.3357 7.225 47.3357 8.035L41.2007 9.235C41.3907 9.695 41.6957 10.045 42.1157 10.285C42.5357 10.525 43.0407 10.645 43.6307 10.645ZM43.2857 5.53C42.5957 5.53 42.0357 5.755 41.6057 6.205C41.1857 6.655 40.9757 7.26 40.9757 8.02V8.035L45.5057 7.165C45.3757 6.675 45.1107 6.28 44.7107 5.98C44.3207 5.68 43.8457 5.53 43.2857 5.53Z" stroke="black" stroke-width="0.36" mask="url(#path-1-outside-1_1972_5045)"/>
<path d="M56.7122 1V12.13H54.9121V11.095C54.6021 11.475 54.2171 11.76 53.7571 11.95C53.3071 12.14 52.8071 12.235 52.2571 12.235C51.4871 12.235 50.7921 12.065 50.1721 11.725C49.5621 11.385 49.0821 10.905 48.7321 10.285C48.3821 9.655 48.2071 8.935 48.2071 8.125C48.2071 7.315 48.3821 6.6 48.7321 5.98C49.0821 5.36 49.5621 4.88 50.1721 4.54C50.7921 4.2 51.4871 4.03 52.2571 4.03C52.7871 4.03 53.2722 4.12 53.7122 4.3C54.1522 4.48 54.5272 4.75 54.8372 5.11V1H56.7122ZM52.4821 10.63C52.9321 10.63 53.3372 10.53 53.6972 10.33C54.0572 10.12 54.3421 9.825 54.5521 9.445C54.7621 9.065 54.8671 8.625 54.8671 8.125C54.8671 7.625 54.7621 7.185 54.5521 6.805C54.3421 6.425 54.0572 6.135 53.6972 5.935C53.3372 5.725 52.9321 5.62 52.4821 5.62C52.0321 5.62 51.6272 5.725 51.2672 5.935C50.9072 6.135 50.6221 6.425 50.4121 6.805C50.2021 7.185 50.0971 7.625 50.0971 8.125C50.0971 8.625 50.2021 9.065 50.4121 9.445C50.6221 9.825 50.9072 10.12 51.2672 10.33C51.6272 10.53 52.0321 10.63 52.4821 10.63Z" stroke="black" stroke-width="0.36" mask="url(#path-1-outside-1_1972_5045)"/>
<path d="M61.37 12.235C60.72 12.235 60.085 12.15 59.465 11.98C58.845 11.81 58.35 11.595 57.98 11.335L58.7 9.91C59.06 10.15 59.49 10.345 59.99 10.495C60.5 10.635 61 10.705 61.49 10.705C62.61 10.705 63.17 10.41 63.17 9.82C63.17 9.54 63.025 9.345 62.735 9.235C62.455 9.125 62 9.02 61.37 8.92C60.71 8.82 60.17 8.705 59.75 8.575C59.34 8.445 58.98 8.22 58.67 7.9C58.37 7.57 58.22 7.115 58.22 6.535C58.22 5.775 58.535 5.17 59.165 4.72C59.805 4.26 60.665 4.03 61.745 4.03C62.295 4.03 62.845 4.095 63.395 4.225C63.945 4.345 64.395 4.51 64.745 4.72L64.025 6.145C63.345 5.745 62.58 5.545 61.73 5.545C61.18 5.545 60.76 5.63 60.47 5.8C60.19 5.96 60.05 6.175 60.05 6.445C60.05 6.745 60.2 6.96 60.5 7.09C60.81 7.21 61.285 7.325 61.925 7.435C62.565 7.535 63.09 7.65 63.5 7.78C63.91 7.91 64.26 8.13 64.55 8.44C64.85 8.75 65 9.19 65 9.76C65 10.51 64.675 11.11 64.025 11.56C63.375 12.01 62.49 12.235 61.37 12.235Z" stroke="black" stroke-width="0.36" mask="url(#path-1-outside-1_1972_5045)"/>
</svg>
