<svg width="156" height="29" viewBox="0 0 156 29" fill="none" xmlns="http://www.w3.org/2000/svg">
<mask id="path-1-outside-1_1988_5053" maskUnits="userSpaceOnUse" x="0" y="0" width="156" height="29" fill="black">
<rect fill="white" width="156" height="29"/>
<path d="M18.8798 14.6262C20.2737 15.0828 21.3792 15.8518 22.1963 16.9332C23.0134 17.9907 23.4219 19.3124 23.4219 20.8985C23.4219 23.0854 22.5808 24.7797 20.8985 25.9813C19.2163 27.1589 16.765 27.7477 13.5447 27.7477H1V2.51402H12.8238C15.8037 2.51402 18.0988 3.1028 19.7089 4.28037C21.3191 5.43391 22.1242 7.03204 22.1242 9.07477C22.1242 10.3244 21.8358 11.4299 21.259 12.3912C20.6822 13.3525 19.8892 14.0975 18.8798 14.6262ZM5.68625 6.19092V13.1482H12.3191C13.9533 13.1482 15.2029 12.8598 16.0681 12.283C16.9573 11.6822 17.4019 10.8171 17.4019 9.68758C17.4019 8.53405 16.9573 7.66889 16.0681 7.09212C15.2029 6.49132 13.9533 6.19092 12.3191 6.19092H5.68625ZM13.2563 24.0708C16.8852 24.0708 18.6996 22.8571 18.6996 20.4299C18.6996 18.0027 16.8852 16.7891 13.2563 16.7891H5.68625V24.0708H13.2563Z"/>
<path d="M36.498 24.1789C38.5888 24.1789 40.3312 23.482 41.725 22.0881L44.1042 24.8638C43.2631 25.8972 42.1816 26.6782 40.8599 27.2069C39.5381 27.7356 38.0481 28 36.3899 28C34.2751 28 32.4126 27.5794 30.8025 26.7383C29.1923 25.8972 27.9426 24.7316 27.0535 23.2417C26.1883 21.7276 25.7557 20.0214 25.7557 18.1228C25.7557 16.2483 26.1763 14.5661 27.0174 13.0761C27.8826 11.5621 29.0601 10.3845 30.5501 9.54339C32.0641 8.70227 33.7704 8.28171 35.6689 8.28171C37.4713 8.28171 39.1055 8.67824 40.5715 9.4713C42.0615 10.2403 43.239 11.3578 44.1042 12.8238C44.9693 14.2657 45.4019 15.9599 45.4019 17.9065L30.6583 20.7904C31.1149 21.8959 31.8478 22.737 32.8572 23.3138C33.8665 23.8905 35.0802 24.1789 36.498 24.1789ZM35.6689 11.8865C34.0107 11.8865 32.6649 12.4272 31.6316 13.5087C30.6222 14.5901 30.1175 16.0441 30.1175 17.8705V17.9065L41.0041 15.8158C40.6916 14.6382 40.0548 13.6889 39.0935 12.968C38.1563 12.247 37.0147 11.8865 35.6689 11.8865Z"/>
<path d="M59.2718 8.28171C61.699 8.28171 63.6456 8.99065 65.1116 10.4085C66.5775 11.8264 67.3105 13.9292 67.3105 16.717V27.7477H62.8045V17.2937C62.8045 15.6115 62.408 14.3498 61.6149 13.5087C60.8219 12.6435 59.6923 12.2109 58.2264 12.2109C56.5682 12.2109 55.2584 12.7156 54.2972 13.725C53.3359 14.7103 52.8552 16.1402 52.8552 18.0147V27.7477H48.3492V8.498H52.6389V10.9853C53.3839 10.0961 54.3212 9.42323 55.4507 8.96662C56.5802 8.51001 57.8539 8.28171 59.2718 8.28171Z"/>
<path d="M81.71 24.1789C83.8008 24.1789 85.5431 23.482 86.937 22.0881L89.3162 24.8638C88.475 25.8972 87.3936 26.6782 86.0718 27.2069C84.7501 27.7356 83.2601 28 81.6019 28C79.487 28 77.6246 27.5794 76.0144 26.7383C74.4043 25.8972 73.1546 24.7316 72.2654 23.2417C71.4003 21.7276 70.9677 20.0214 70.9677 18.1228C70.9677 16.2483 71.3883 14.5661 72.2294 13.0761C73.0945 11.5621 74.2721 10.3845 75.7621 9.54339C77.2761 8.70227 78.9824 8.28171 80.8809 8.28171C82.6833 8.28171 84.3175 8.67824 85.7834 9.4713C87.2734 10.2403 88.451 11.3578 89.3162 12.8238C90.1813 14.2657 90.6139 15.9599 90.6139 17.9065L75.8702 20.7904C76.3268 21.8959 77.0598 22.737 78.0692 23.3138C79.0785 23.8905 80.2921 24.1789 81.71 24.1789ZM80.8809 11.8865C79.2227 11.8865 77.8769 12.4272 76.8435 13.5087C75.8342 14.5901 75.3295 16.0441 75.3295 17.8705V17.9065L86.216 15.8158C85.9036 14.6382 85.2667 13.6889 84.3055 12.968C83.3682 12.247 82.2267 11.8865 80.8809 11.8865Z"/>
<path d="M103.45 24.1789C105.541 24.1789 107.283 23.482 108.677 22.0881L111.057 24.8638C110.215 25.8972 109.134 26.6782 107.812 27.2069C106.49 27.7356 105 28 103.342 28C101.227 28 99.3649 27.5794 97.7548 26.7383C96.1446 25.8972 94.895 24.7316 94.0058 23.2417C93.1406 21.7276 92.7081 20.0214 92.7081 18.1228C92.7081 16.2483 93.1286 14.5661 93.9697 13.0761C94.8349 11.5621 96.0125 10.3845 97.5024 9.54339C99.0165 8.70227 100.723 8.28171 102.621 8.28171C104.424 8.28171 106.058 8.67824 107.524 9.4713C109.014 10.2403 110.191 11.3578 111.057 12.8238C111.922 14.2657 112.354 15.9599 112.354 17.9065L97.6106 20.7904C98.0672 21.8959 98.8002 22.737 99.8095 23.3138C100.819 23.8905 102.032 24.1789 103.45 24.1789ZM102.621 11.8865C100.963 11.8865 99.6173 12.4272 98.5839 13.5087C97.5745 14.5901 97.0699 16.0441 97.0699 17.8705V17.9065L107.956 15.8158C107.644 14.6382 107.007 13.6889 106.046 12.968C105.109 12.247 103.967 11.8865 102.621 11.8865Z"/>
<path d="M134.888 1V27.7477H130.562V25.2603C129.817 26.1736 128.892 26.8585 127.786 27.3151C126.705 27.7717 125.503 28 124.181 28C122.331 28 120.661 27.5915 119.171 26.7744C117.705 25.9573 116.551 24.8037 115.71 23.3138C114.869 21.7997 114.448 20.0694 114.448 18.1228C114.448 16.1762 114.869 14.4579 115.71 12.968C116.551 11.478 117.705 10.3244 119.171 9.50734C120.661 8.69025 122.331 8.28171 124.181 8.28171C125.455 8.28171 126.621 8.498 127.678 8.93057C128.735 9.36315 129.637 10.012 130.382 10.8772V1H134.888ZM124.722 24.1429C125.804 24.1429 126.777 23.9025 127.642 23.4219C128.507 22.9172 129.192 22.2083 129.697 21.2951C130.201 20.3818 130.454 19.3244 130.454 18.1228C130.454 16.9212 130.201 15.8638 129.697 14.9506C129.192 14.0374 128.507 13.3405 127.642 12.8598C126.777 12.3551 125.804 12.1028 124.722 12.1028C123.641 12.1028 122.667 12.3551 121.802 12.8598C120.937 13.3405 120.252 14.0374 119.747 14.9506C119.243 15.8638 118.99 16.9212 118.99 18.1228C118.99 19.3244 119.243 20.3818 119.747 21.2951C120.252 22.2083 120.937 22.9172 121.802 23.4219C122.667 23.9025 123.641 24.1429 124.722 24.1429Z"/>
<path d="M146.081 28C144.519 28 142.993 27.7957 141.503 27.3872C140.013 26.9786 138.824 26.462 137.935 25.8371L139.665 22.4126C140.53 22.9893 141.563 23.4579 142.765 23.8184C143.991 24.1549 145.192 24.3231 146.37 24.3231C149.061 24.3231 150.407 23.6142 150.407 22.1963C150.407 21.5234 150.059 21.0547 149.362 20.7904C148.689 20.526 147.595 20.2737 146.081 20.0334C144.495 19.7931 143.198 19.5167 142.188 19.2043C141.203 18.8919 140.338 18.3511 139.593 17.5821C138.872 16.7891 138.511 15.6956 138.511 14.3017C138.511 12.4753 139.268 11.0214 140.782 9.93992C142.32 8.83445 144.387 8.28171 146.983 8.28171C148.304 8.28171 149.626 8.43792 150.948 8.75033C152.27 9.03872 153.351 9.43525 154.192 9.93992L152.462 13.3645C150.828 12.4032 148.989 11.9226 146.947 11.9226C145.625 11.9226 144.615 12.1268 143.919 12.5354C143.246 12.9199 142.909 13.4366 142.909 14.0854C142.909 14.8064 143.27 15.3231 143.991 15.6355C144.736 15.9239 145.877 16.2003 147.415 16.4646C148.953 16.7049 150.215 16.9813 151.2 17.2937C152.186 17.6061 153.027 18.1348 153.724 18.8798C154.445 19.6248 154.805 20.6822 154.805 22.0521C154.805 23.8545 154.024 25.2964 152.462 26.3778C150.9 27.4593 148.773 28 146.081 28Z"/>
</mask>
<path d="M18.8798 14.6262C20.2737 15.0828 21.3792 15.8518 22.1963 16.9332C23.0134 17.9907 23.4219 19.3124 23.4219 20.8985C23.4219 23.0854 22.5808 24.7797 20.8985 25.9813C19.2163 27.1589 16.765 27.7477 13.5447 27.7477H1V2.51402H12.8238C15.8037 2.51402 18.0988 3.1028 19.7089 4.28037C21.3191 5.43391 22.1242 7.03204 22.1242 9.07477C22.1242 10.3244 21.8358 11.4299 21.259 12.3912C20.6822 13.3525 19.8892 14.0975 18.8798 14.6262ZM5.68625 6.19092V13.1482H12.3191C13.9533 13.1482 15.2029 12.8598 16.0681 12.283C16.9573 11.6822 17.4019 10.8171 17.4019 9.68758C17.4019 8.53405 16.9573 7.66889 16.0681 7.09212C15.2029 6.49132 13.9533 6.19092 12.3191 6.19092H5.68625ZM13.2563 24.0708C16.8852 24.0708 18.6996 22.8571 18.6996 20.4299C18.6996 18.0027 16.8852 16.7891 13.2563 16.7891H5.68625V24.0708H13.2563Z" fill="#767DEE"/>
<path d="M36.498 24.1789C38.5888 24.1789 40.3312 23.482 41.725 22.0881L44.1042 24.8638C43.2631 25.8972 42.1816 26.6782 40.8599 27.2069C39.5381 27.7356 38.0481 28 36.3899 28C34.2751 28 32.4126 27.5794 30.8025 26.7383C29.1923 25.8972 27.9426 24.7316 27.0535 23.2417C26.1883 21.7276 25.7557 20.0214 25.7557 18.1228C25.7557 16.2483 26.1763 14.5661 27.0174 13.0761C27.8826 11.5621 29.0601 10.3845 30.5501 9.54339C32.0641 8.70227 33.7704 8.28171 35.6689 8.28171C37.4713 8.28171 39.1055 8.67824 40.5715 9.4713C42.0615 10.2403 43.239 11.3578 44.1042 12.8238C44.9693 14.2657 45.4019 15.9599 45.4019 17.9065L30.6583 20.7904C31.1149 21.8959 31.8478 22.737 32.8572 23.3138C33.8665 23.8905 35.0802 24.1789 36.498 24.1789ZM35.6689 11.8865C34.0107 11.8865 32.6649 12.4272 31.6316 13.5087C30.6222 14.5901 30.1175 16.0441 30.1175 17.8705V17.9065L41.0041 15.8158C40.6916 14.6382 40.0548 13.6889 39.0935 12.968C38.1563 12.247 37.0147 11.8865 35.6689 11.8865Z" fill="#767DEE"/>
<path d="M59.2718 8.28171C61.699 8.28171 63.6456 8.99065 65.1116 10.4085C66.5775 11.8264 67.3105 13.9292 67.3105 16.717V27.7477H62.8045V17.2937C62.8045 15.6115 62.408 14.3498 61.6149 13.5087C60.8219 12.6435 59.6923 12.2109 58.2264 12.2109C56.5682 12.2109 55.2584 12.7156 54.2972 13.725C53.3359 14.7103 52.8552 16.1402 52.8552 18.0147V27.7477H48.3492V8.498H52.6389V10.9853C53.3839 10.0961 54.3212 9.42323 55.4507 8.96662C56.5802 8.51001 57.8539 8.28171 59.2718 8.28171Z" fill="#767DEE"/>
<path d="M81.71 24.1789C83.8008 24.1789 85.5431 23.482 86.937 22.0881L89.3162 24.8638C88.475 25.8972 87.3936 26.6782 86.0718 27.2069C84.7501 27.7356 83.2601 28 81.6019 28C79.487 28 77.6246 27.5794 76.0144 26.7383C74.4043 25.8972 73.1546 24.7316 72.2654 23.2417C71.4003 21.7276 70.9677 20.0214 70.9677 18.1228C70.9677 16.2483 71.3883 14.5661 72.2294 13.0761C73.0945 11.5621 74.2721 10.3845 75.7621 9.54339C77.2761 8.70227 78.9824 8.28171 80.8809 8.28171C82.6833 8.28171 84.3175 8.67824 85.7834 9.4713C87.2734 10.2403 88.451 11.3578 89.3162 12.8238C90.1813 14.2657 90.6139 15.9599 90.6139 17.9065L75.8702 20.7904C76.3268 21.8959 77.0598 22.737 78.0692 23.3138C79.0785 23.8905 80.2921 24.1789 81.71 24.1789ZM80.8809 11.8865C79.2227 11.8865 77.8769 12.4272 76.8435 13.5087C75.8342 14.5901 75.3295 16.0441 75.3295 17.8705V17.9065L86.216 15.8158C85.9036 14.6382 85.2667 13.6889 84.3055 12.968C83.3682 12.247 82.2267 11.8865 80.8809 11.8865Z" fill="#767DEE"/>
<path d="M103.45 24.1789C105.541 24.1789 107.283 23.482 108.677 22.0881L111.057 24.8638C110.215 25.8972 109.134 26.6782 107.812 27.2069C106.49 27.7356 105 28 103.342 28C101.227 28 99.3649 27.5794 97.7548 26.7383C96.1446 25.8972 94.895 24.7316 94.0058 23.2417C93.1406 21.7276 92.7081 20.0214 92.7081 18.1228C92.7081 16.2483 93.1286 14.5661 93.9697 13.0761C94.8349 11.5621 96.0125 10.3845 97.5024 9.54339C99.0165 8.70227 100.723 8.28171 102.621 8.28171C104.424 8.28171 106.058 8.67824 107.524 9.4713C109.014 10.2403 110.191 11.3578 111.057 12.8238C111.922 14.2657 112.354 15.9599 112.354 17.9065L97.6106 20.7904C98.0672 21.8959 98.8002 22.737 99.8095 23.3138C100.819 23.8905 102.032 24.1789 103.45 24.1789ZM102.621 11.8865C100.963 11.8865 99.6173 12.4272 98.5839 13.5087C97.5745 14.5901 97.0699 16.0441 97.0699 17.8705V17.9065L107.956 15.8158C107.644 14.6382 107.007 13.6889 106.046 12.968C105.109 12.247 103.967 11.8865 102.621 11.8865Z" fill="#767DEE"/>
<path d="M134.888 1V27.7477H130.562V25.2603C129.817 26.1736 128.892 26.8585 127.786 27.3151C126.705 27.7717 125.503 28 124.181 28C122.331 28 120.661 27.5915 119.171 26.7744C117.705 25.9573 116.551 24.8037 115.71 23.3138C114.869 21.7997 114.448 20.0694 114.448 18.1228C114.448 16.1762 114.869 14.4579 115.71 12.968C116.551 11.478 117.705 10.3244 119.171 9.50734C120.661 8.69025 122.331 8.28171 124.181 8.28171C125.455 8.28171 126.621 8.498 127.678 8.93057C128.735 9.36315 129.637 10.012 130.382 10.8772V1H134.888ZM124.722 24.1429C125.804 24.1429 126.777 23.9025 127.642 23.4219C128.507 22.9172 129.192 22.2083 129.697 21.2951C130.201 20.3818 130.454 19.3244 130.454 18.1228C130.454 16.9212 130.201 15.8638 129.697 14.9506C129.192 14.0374 128.507 13.3405 127.642 12.8598C126.777 12.3551 125.804 12.1028 124.722 12.1028C123.641 12.1028 122.667 12.3551 121.802 12.8598C120.937 13.3405 120.252 14.0374 119.747 14.9506C119.243 15.8638 118.99 16.9212 118.99 18.1228C118.99 19.3244 119.243 20.3818 119.747 21.2951C120.252 22.2083 120.937 22.9172 121.802 23.4219C122.667 23.9025 123.641 24.1429 124.722 24.1429Z" fill="#767DEE"/>
<path d="M146.081 28C144.519 28 142.993 27.7957 141.503 27.3872C140.013 26.9786 138.824 26.462 137.935 25.8371L139.665 22.4126C140.53 22.9893 141.563 23.4579 142.765 23.8184C143.991 24.1549 145.192 24.3231 146.37 24.3231C149.061 24.3231 150.407 23.6142 150.407 22.1963C150.407 21.5234 150.059 21.0547 149.362 20.7904C148.689 20.526 147.595 20.2737 146.081 20.0334C144.495 19.7931 143.198 19.5167 142.188 19.2043C141.203 18.8919 140.338 18.3511 139.593 17.5821C138.872 16.7891 138.511 15.6956 138.511 14.3017C138.511 12.4753 139.268 11.0214 140.782 9.93992C142.32 8.83445 144.387 8.28171 146.983 8.28171C148.304 8.28171 149.626 8.43792 150.948 8.75033C152.27 9.03872 153.351 9.43525 154.192 9.93992L152.462 13.3645C150.828 12.4032 148.989 11.9226 146.947 11.9226C145.625 11.9226 144.615 12.1268 143.919 12.5354C143.246 12.9199 142.909 13.4366 142.909 14.0854C142.909 14.8064 143.27 15.3231 143.991 15.6355C144.736 15.9239 145.877 16.2003 147.415 16.4646C148.953 16.7049 150.215 16.9813 151.2 17.2937C152.186 17.6061 153.027 18.1348 153.724 18.8798C154.445 19.6248 154.805 20.6822 154.805 22.0521C154.805 23.8545 154.024 25.2964 152.462 26.3778C150.9 27.4593 148.773 28 146.081 28Z" fill="#767DEE"/>
<path d="M18.8798 14.6262C20.2737 15.0828 21.3792 15.8518 22.1963 16.9332C23.0134 17.9907 23.4219 19.3124 23.4219 20.8985C23.4219 23.0854 22.5808 24.7797 20.8985 25.9813C19.2163 27.1589 16.765 27.7477 13.5447 27.7477H1V2.51402H12.8238C15.8037 2.51402 18.0988 3.1028 19.7089 4.28037C21.3191 5.43391 22.1242 7.03204 22.1242 9.07477C22.1242 10.3244 21.8358 11.4299 21.259 12.3912C20.6822 13.3525 19.8892 14.0975 18.8798 14.6262ZM5.68625 6.19092V13.1482H12.3191C13.9533 13.1482 15.2029 12.8598 16.0681 12.283C16.9573 11.6822 17.4019 10.8171 17.4019 9.68758C17.4019 8.53405 16.9573 7.66889 16.0681 7.09212C15.2029 6.49132 13.9533 6.19092 12.3191 6.19092H5.68625ZM13.2563 24.0708C16.8852 24.0708 18.6996 22.8571 18.6996 20.4299C18.6996 18.0027 16.8852 16.7891 13.2563 16.7891H5.68625V24.0708H13.2563Z" stroke="#7A7CEA" stroke-width="0.865153" mask="url(#path-1-outside-1_1988_5053)"/>
<path d="M36.498 24.1789C38.5888 24.1789 40.3312 23.482 41.725 22.0881L44.1042 24.8638C43.2631 25.8972 42.1816 26.6782 40.8599 27.2069C39.5381 27.7356 38.0481 28 36.3899 28C34.2751 28 32.4126 27.5794 30.8025 26.7383C29.1923 25.8972 27.9426 24.7316 27.0535 23.2417C26.1883 21.7276 25.7557 20.0214 25.7557 18.1228C25.7557 16.2483 26.1763 14.5661 27.0174 13.0761C27.8826 11.5621 29.0601 10.3845 30.5501 9.54339C32.0641 8.70227 33.7704 8.28171 35.6689 8.28171C37.4713 8.28171 39.1055 8.67824 40.5715 9.4713C42.0615 10.2403 43.239 11.3578 44.1042 12.8238C44.9693 14.2657 45.4019 15.9599 45.4019 17.9065L30.6583 20.7904C31.1149 21.8959 31.8478 22.737 32.8572 23.3138C33.8665 23.8905 35.0802 24.1789 36.498 24.1789ZM35.6689 11.8865C34.0107 11.8865 32.6649 12.4272 31.6316 13.5087C30.6222 14.5901 30.1175 16.0441 30.1175 17.8705V17.9065L41.0041 15.8158C40.6916 14.6382 40.0548 13.6889 39.0935 12.968C38.1563 12.247 37.0147 11.8865 35.6689 11.8865Z" stroke="#7A7CEA" stroke-width="0.865153" mask="url(#path-1-outside-1_1988_5053)"/>
<path d="M59.2718 8.28171C61.699 8.28171 63.6456 8.99065 65.1116 10.4085C66.5775 11.8264 67.3105 13.9292 67.3105 16.717V27.7477H62.8045V17.2937C62.8045 15.6115 62.408 14.3498 61.6149 13.5087C60.8219 12.6435 59.6923 12.2109 58.2264 12.2109C56.5682 12.2109 55.2584 12.7156 54.2972 13.725C53.3359 14.7103 52.8552 16.1402 52.8552 18.0147V27.7477H48.3492V8.498H52.6389V10.9853C53.3839 10.0961 54.3212 9.42323 55.4507 8.96662C56.5802 8.51001 57.8539 8.28171 59.2718 8.28171Z" stroke="#7A7CEA" stroke-width="0.865153" mask="url(#path-1-outside-1_1988_5053)"/>
<path d="M81.71 24.1789C83.8008 24.1789 85.5431 23.482 86.937 22.0881L89.3162 24.8638C88.475 25.8972 87.3936 26.6782 86.0718 27.2069C84.7501 27.7356 83.2601 28 81.6019 28C79.487 28 77.6246 27.5794 76.0144 26.7383C74.4043 25.8972 73.1546 24.7316 72.2654 23.2417C71.4003 21.7276 70.9677 20.0214 70.9677 18.1228C70.9677 16.2483 71.3883 14.5661 72.2294 13.0761C73.0945 11.5621 74.2721 10.3845 75.7621 9.54339C77.2761 8.70227 78.9824 8.28171 80.8809 8.28171C82.6833 8.28171 84.3175 8.67824 85.7834 9.4713C87.2734 10.2403 88.451 11.3578 89.3162 12.8238C90.1813 14.2657 90.6139 15.9599 90.6139 17.9065L75.8702 20.7904C76.3268 21.8959 77.0598 22.737 78.0692 23.3138C79.0785 23.8905 80.2921 24.1789 81.71 24.1789ZM80.8809 11.8865C79.2227 11.8865 77.8769 12.4272 76.8435 13.5087C75.8342 14.5901 75.3295 16.0441 75.3295 17.8705V17.9065L86.216 15.8158C85.9036 14.6382 85.2667 13.6889 84.3055 12.968C83.3682 12.247 82.2267 11.8865 80.8809 11.8865Z" stroke="#7A7CEA" stroke-width="0.865153" mask="url(#path-1-outside-1_1988_5053)"/>
<path d="M103.45 24.1789C105.541 24.1789 107.283 23.482 108.677 22.0881L111.057 24.8638C110.215 25.8972 109.134 26.6782 107.812 27.2069C106.49 27.7356 105 28 103.342 28C101.227 28 99.3649 27.5794 97.7548 26.7383C96.1446 25.8972 94.895 24.7316 94.0058 23.2417C93.1406 21.7276 92.7081 20.0214 92.7081 18.1228C92.7081 16.2483 93.1286 14.5661 93.9697 13.0761C94.8349 11.5621 96.0125 10.3845 97.5024 9.54339C99.0165 8.70227 100.723 8.28171 102.621 8.28171C104.424 8.28171 106.058 8.67824 107.524 9.4713C109.014 10.2403 110.191 11.3578 111.057 12.8238C111.922 14.2657 112.354 15.9599 112.354 17.9065L97.6106 20.7904C98.0672 21.8959 98.8002 22.737 99.8095 23.3138C100.819 23.8905 102.032 24.1789 103.45 24.1789ZM102.621 11.8865C100.963 11.8865 99.6173 12.4272 98.5839 13.5087C97.5745 14.5901 97.0699 16.0441 97.0699 17.8705V17.9065L107.956 15.8158C107.644 14.6382 107.007 13.6889 106.046 12.968C105.109 12.247 103.967 11.8865 102.621 11.8865Z" stroke="#7A7CEA" stroke-width="0.865153" mask="url(#path-1-outside-1_1988_5053)"/>
<path d="M134.888 1V27.7477H130.562V25.2603C129.817 26.1736 128.892 26.8585 127.786 27.3151C126.705 27.7717 125.503 28 124.181 28C122.331 28 120.661 27.5915 119.171 26.7744C117.705 25.9573 116.551 24.8037 115.71 23.3138C114.869 21.7997 114.448 20.0694 114.448 18.1228C114.448 16.1762 114.869 14.4579 115.71 12.968C116.551 11.478 117.705 10.3244 119.171 9.50734C120.661 8.69025 122.331 8.28171 124.181 8.28171C125.455 8.28171 126.621 8.498 127.678 8.93057C128.735 9.36315 129.637 10.012 130.382 10.8772V1H134.888ZM124.722 24.1429C125.804 24.1429 126.777 23.9025 127.642 23.4219C128.507 22.9172 129.192 22.2083 129.697 21.2951C130.201 20.3818 130.454 19.3244 130.454 18.1228C130.454 16.9212 130.201 15.8638 129.697 14.9506C129.192 14.0374 128.507 13.3405 127.642 12.8598C126.777 12.3551 125.804 12.1028 124.722 12.1028C123.641 12.1028 122.667 12.3551 121.802 12.8598C120.937 13.3405 120.252 14.0374 119.747 14.9506C119.243 15.8638 118.99 16.9212 118.99 18.1228C118.99 19.3244 119.243 20.3818 119.747 21.2951C120.252 22.2083 120.937 22.9172 121.802 23.4219C122.667 23.9025 123.641 24.1429 124.722 24.1429Z" stroke="#7A7CEA" stroke-width="0.865153" mask="url(#path-1-outside-1_1988_5053)"/>
<path d="M146.081 28C144.519 28 142.993 27.7957 141.503 27.3872C140.013 26.9786 138.824 26.462 137.935 25.8371L139.665 22.4126C140.53 22.9893 141.563 23.4579 142.765 23.8184C143.991 24.1549 145.192 24.3231 146.37 24.3231C149.061 24.3231 150.407 23.6142 150.407 22.1963C150.407 21.5234 150.059 21.0547 149.362 20.7904C148.689 20.526 147.595 20.2737 146.081 20.0334C144.495 19.7931 143.198 19.5167 142.188 19.2043C141.203 18.8919 140.338 18.3511 139.593 17.5821C138.872 16.7891 138.511 15.6956 138.511 14.3017C138.511 12.4753 139.268 11.0214 140.782 9.93992C142.32 8.83445 144.387 8.28171 146.983 8.28171C148.304 8.28171 149.626 8.43792 150.948 8.75033C152.27 9.03872 153.351 9.43525 154.192 9.93992L152.462 13.3645C150.828 12.4032 148.989 11.9226 146.947 11.9226C145.625 11.9226 144.615 12.1268 143.919 12.5354C143.246 12.9199 142.909 13.4366 142.909 14.0854C142.909 14.8064 143.27 15.3231 143.991 15.6355C144.736 15.9239 145.877 16.2003 147.415 16.4646C148.953 16.7049 150.215 16.9813 151.2 17.2937C152.186 17.6061 153.027 18.1348 153.724 18.8798C154.445 19.6248 154.805 20.6822 154.805 22.0521C154.805 23.8545 154.024 25.2964 152.462 26.3778C150.9 27.4593 148.773 28 146.081 28Z" stroke="#7A7CEA" stroke-width="0.865153" mask="url(#path-1-outside-1_1988_5053)"/>
</svg>
