<svg width="900" height="464" viewBox="0 0 900 464" fill="none" xmlns="http://www.w3.org/2000/svg">
<mask id="mask0_1993_5257" style="mask-type:alpha" maskUnits="userSpaceOnUse" x="0" y="0" width="900" height="464">
<rect width="900" height="463.5" rx="27" fill="#F3EEF8"/>
</mask>
<g mask="url(#mask0_1993_5257)">
<rect width="900" height="463.5" rx="27" fill="#EFEFFC"/>
<g filter="url(#filter0_d_1993_5257)">
<rect x="216.879" y="208.125" width="465.673" height="271.125" rx="12.4179" fill="white"/>
</g>
<path d="M245.931 364.356C245.931 365.019 245.806 365.641 245.555 366.223C245.308 366.801 244.951 367.308 244.482 367.745C244.013 368.182 243.465 368.509 242.839 368.727L242.238 367.836C242.792 367.646 243.275 367.371 243.687 367.011C244.104 366.652 244.421 366.243 244.639 365.787C244.862 365.326 244.973 364.849 244.973 364.356V363.525H245.931V364.356ZM246.137 364.356C246.137 364.825 246.248 365.275 246.471 365.708C246.693 366.136 247.008 366.52 247.416 366.86C247.829 367.199 248.31 367.456 248.86 367.63L248.271 368.521C247.649 368.315 247.105 368.006 246.64 367.593C246.179 367.177 245.822 366.692 245.567 366.138C245.316 365.584 245.191 364.99 245.191 364.356V363.525H246.137V364.356ZM251.127 368.97H249.981V362.403H251.127V368.97ZM251.127 373.269H249.981V370.449H243.766V369.51H251.127V373.269ZM248.538 364.058H242.535V363.131H248.538V364.058ZM256.983 370.316H255.825V367.903H256.983V370.316ZM261.828 370.656H260.676V362.415H261.828V370.656ZM262.089 373.057H254.236V372.105H262.089V373.057ZM255.394 372.371H254.236V369.855H255.394V372.371ZM252.733 367.381C254.184 367.369 255.465 367.345 256.577 367.308C257.693 367.268 258.76 367.183 259.778 367.054L259.845 367.885C258.79 368.054 257.684 368.167 256.528 368.224C255.376 368.281 254.162 368.307 252.884 368.303L252.733 367.381ZM260.961 369.619H258.481V368.806H260.961V369.619ZM256.292 362.834C256.813 362.834 257.28 362.912 257.693 363.07C258.105 363.228 258.424 363.452 258.651 363.743C258.877 364.034 258.99 364.368 258.99 364.744C258.99 365.128 258.877 365.461 258.651 365.744C258.424 366.027 258.105 366.247 257.693 366.405C257.284 366.563 256.817 366.642 256.292 366.642C255.758 366.642 255.287 366.563 254.879 366.405C254.471 366.247 254.153 366.027 253.927 365.744C253.701 365.461 253.588 365.128 253.588 364.744C253.588 364.368 253.701 364.034 253.927 363.743C254.153 363.448 254.471 363.224 254.879 363.07C255.291 362.912 255.762 362.834 256.292 362.834ZM256.292 363.695C255.973 363.691 255.692 363.731 255.449 363.816C255.207 363.901 255.017 364.024 254.879 364.186C254.746 364.348 254.681 364.533 254.685 364.744C254.681 364.958 254.746 365.144 254.879 365.301C255.017 365.459 255.207 365.582 255.449 365.671C255.692 365.756 255.973 365.799 256.292 365.799C256.603 365.799 256.878 365.756 257.116 365.671C257.359 365.582 257.549 365.459 257.686 365.301C257.824 365.144 257.893 364.958 257.893 364.744C257.893 364.533 257.824 364.348 257.686 364.186C257.549 364.024 257.359 363.901 257.116 363.816C256.878 363.731 256.603 363.691 256.292 363.695ZM276.335 368.915H266.427V367.975H276.335V368.915ZM271.939 368.4H270.805V366.726H271.939V368.4ZM271.939 363.943H270.805V362.397H271.939V363.943ZM271.751 364.204C271.751 364.77 271.559 365.269 271.175 365.702C270.795 366.13 270.271 366.476 269.604 366.739C268.937 367.001 268.171 367.173 267.306 367.254L266.948 366.375C267.696 366.31 268.357 366.177 268.931 365.975C269.509 365.772 269.954 365.52 270.265 365.217C270.58 364.913 270.738 364.576 270.738 364.204V364.01H271.751V364.204ZM272.011 364.204C272.007 364.576 272.163 364.913 272.478 365.217C272.794 365.52 273.238 365.772 273.812 365.975C274.386 366.177 275.047 366.31 275.795 366.375L275.443 367.254C274.578 367.173 273.812 367.001 273.145 366.739C272.478 366.476 271.953 366.13 271.569 365.702C271.189 365.269 270.999 364.77 270.999 364.204V364.01H272.011V364.204ZM275.346 364.362H267.428V363.434H275.346V364.362ZM271.375 369.625C272.163 369.625 272.836 369.695 273.394 369.837C273.956 369.978 274.384 370.185 274.679 370.455C274.974 370.722 275.124 371.05 275.128 371.438C275.124 371.83 274.974 372.161 274.679 372.432C274.384 372.703 273.956 372.907 273.394 373.045C272.836 373.186 272.163 373.257 271.375 373.257C270.583 373.257 269.905 373.186 269.344 373.045C268.782 372.907 268.351 372.703 268.052 372.432C267.753 372.161 267.603 371.83 267.603 371.438C267.603 371.05 267.753 370.722 268.052 370.455C268.351 370.185 268.782 369.978 269.344 369.837C269.905 369.695 270.583 369.625 271.375 369.625ZM271.375 370.486C270.813 370.486 270.338 370.524 269.95 370.601C269.562 370.674 269.267 370.781 269.065 370.922C268.867 371.06 268.77 371.232 268.774 371.438C268.77 371.648 268.867 371.822 269.065 371.959C269.267 372.097 269.562 372.202 269.95 372.274C270.338 372.347 270.813 372.382 271.375 372.378C271.929 372.382 272.398 372.347 272.782 372.274C273.17 372.202 273.465 372.097 273.667 371.959C273.869 371.822 273.97 371.648 273.97 371.438C273.97 371.232 273.869 371.06 273.667 370.922C273.465 370.781 273.17 370.674 272.782 370.601C272.398 370.524 271.929 370.486 271.375 370.486ZM289.077 370.316H287.931V362.415H289.077V370.316ZM289.405 373.057H281.977V372.105H289.405V373.057ZM283.129 372.45H281.977V369.516H283.129V372.45ZM283.183 363.149C283.725 363.149 284.216 363.264 284.657 363.495C285.098 363.725 285.443 364.044 285.694 364.453C285.948 364.861 286.076 365.324 286.076 365.841C286.076 366.363 285.948 366.829 285.694 367.242C285.443 367.65 285.098 367.969 284.657 368.2C284.216 368.43 283.725 368.545 283.183 368.545C282.642 368.545 282.151 368.43 281.71 368.2C281.274 367.969 280.928 367.65 280.673 367.242C280.419 366.829 280.291 366.363 280.291 365.841C280.291 365.324 280.419 364.861 280.673 364.453C280.928 364.044 281.274 363.725 281.71 363.495C282.151 363.264 282.642 363.149 283.183 363.149ZM283.183 364.156C282.848 364.156 282.545 364.226 282.274 364.368C282.007 364.509 281.797 364.707 281.643 364.962C281.49 365.217 281.415 365.51 281.419 365.841C281.415 366.177 281.49 366.474 281.643 366.732C281.797 366.987 282.007 367.185 282.274 367.327C282.545 367.468 282.848 367.539 283.183 367.539C283.515 367.539 283.814 367.468 284.081 367.327C284.348 367.185 284.558 366.987 284.711 366.732C284.865 366.474 284.942 366.177 284.942 365.841C284.942 365.51 284.865 365.217 284.711 364.962C284.558 364.707 284.348 364.509 284.081 364.368C283.814 364.226 283.515 364.156 283.183 364.156ZM294.933 370.316H293.775V367.903H294.933V370.316ZM299.778 370.656H298.626V362.415H299.778V370.656ZM300.038 373.057H292.186V372.105H300.038V373.057ZM293.344 372.371H292.186V369.855H293.344V372.371ZM290.683 367.381C292.134 367.369 293.415 367.345 294.527 367.308C295.642 367.268 296.71 367.183 297.728 367.054L297.795 367.885C296.74 368.054 295.634 368.167 294.478 368.224C293.326 368.281 292.111 368.307 290.834 368.303L290.683 367.381ZM298.911 369.619H296.431V368.806H298.911V369.619ZM294.242 362.834C294.763 362.834 295.23 362.912 295.642 363.07C296.055 363.228 296.374 363.452 296.6 363.743C296.827 364.034 296.94 364.368 296.94 364.744C296.94 365.128 296.827 365.461 296.6 365.744C296.374 366.027 296.055 366.247 295.642 366.405C295.234 366.563 294.767 366.642 294.242 366.642C293.708 366.642 293.237 366.563 292.829 366.405C292.421 366.247 292.103 366.027 291.877 365.744C291.651 365.461 291.537 365.128 291.537 364.744C291.537 364.368 291.651 364.034 291.877 363.743C292.103 363.448 292.421 363.224 292.829 363.07C293.241 362.912 293.712 362.834 294.242 362.834ZM294.242 363.695C293.922 363.691 293.641 363.731 293.399 363.816C293.156 363.901 292.966 364.024 292.829 364.186C292.696 364.348 292.631 364.533 292.635 364.744C292.631 364.958 292.696 365.144 292.829 365.301C292.966 365.459 293.156 365.582 293.399 365.671C293.641 365.756 293.922 365.799 294.242 365.799C294.553 365.799 294.828 365.756 295.066 365.671C295.309 365.582 295.499 365.459 295.636 365.301C295.774 365.144 295.843 364.958 295.843 364.744C295.843 364.533 295.774 364.348 295.636 364.186C295.499 364.024 295.309 363.901 295.066 363.816C294.828 363.731 294.553 363.691 294.242 363.695Z" fill="#615D64"/>
<path d="M250.561 248.929H248.047V247.272H250.561V248.929ZM250.561 253.497H248.047V251.815H250.561V253.497ZM254.911 258.728H252.93V243.998H254.911V258.728ZM251.895 258.049H249.963V244.224H251.895V258.049ZM245.484 245.057C246.131 245.057 246.7 245.272 247.19 245.704C247.686 246.135 248.066 246.752 248.33 247.555C248.599 248.358 248.734 249.301 248.734 250.384C248.734 251.473 248.599 252.422 248.33 253.23C248.066 254.033 247.686 254.653 247.19 255.09C246.7 255.521 246.131 255.736 245.484 255.736C244.837 255.736 244.274 255.521 243.795 255.09C243.315 254.653 242.94 254.033 242.671 253.23C242.407 252.422 242.275 251.473 242.275 250.384C242.275 249.301 242.407 248.358 242.671 247.555C242.94 246.752 243.315 246.135 243.795 245.704C244.274 245.272 244.837 245.057 245.484 245.057ZM245.484 247.013C245.193 247.013 244.951 247.137 244.757 247.385C244.563 247.633 244.412 248.01 244.304 248.517C244.201 249.018 244.15 249.641 244.15 250.384C244.15 251.134 244.201 251.759 244.304 252.26C244.412 252.761 244.563 253.136 244.757 253.384C244.951 253.632 245.193 253.756 245.484 253.756C245.77 253.756 246.015 253.629 246.22 253.376C246.425 253.122 246.581 252.748 246.689 252.252C246.802 251.751 246.859 251.128 246.859 250.384C246.859 249.641 246.802 249.018 246.689 248.517C246.581 248.01 246.425 247.633 246.22 247.385C246.015 247.137 245.77 247.013 245.484 247.013ZM261.385 246.124C261.385 247.126 261.235 248.056 260.933 248.913C260.636 249.77 260.184 250.517 259.575 251.153C258.965 251.783 258.211 252.252 257.311 252.559L256.203 250.942C256.99 250.673 257.645 250.293 258.168 249.802C258.691 249.307 259.076 248.746 259.324 248.121C259.572 247.496 259.698 246.83 259.704 246.124V244.79H261.385V246.124ZM261.774 246.326C261.774 246.946 261.895 247.531 262.137 248.08C262.385 248.63 262.76 249.121 263.261 249.552C263.768 249.978 264.396 250.309 265.145 250.546L264.045 252.147C263.183 251.861 262.458 251.433 261.871 250.861C261.283 250.285 260.841 249.611 260.545 248.84C260.248 248.07 260.103 247.232 260.108 246.326V244.79H261.774V246.326ZM268.088 252.737H266.026V243.998H268.088V252.737ZM270.076 249.172H267.505V247.45H270.076V249.172ZM263.261 253.036C264.274 253.036 265.153 253.149 265.897 253.376C266.646 253.597 267.22 253.923 267.619 254.354C268.023 254.78 268.225 255.286 268.225 255.874C268.225 256.472 268.023 256.984 267.619 257.41C267.22 257.836 266.646 258.162 265.897 258.388C265.153 258.615 264.274 258.728 263.261 258.728C262.232 258.728 261.337 258.615 260.577 258.388C259.822 258.162 259.24 257.836 258.831 257.41C258.421 256.984 258.216 256.472 258.216 255.874C258.216 255.286 258.421 254.78 258.831 254.354C259.24 253.923 259.822 253.597 260.577 253.376C261.337 253.149 262.232 253.036 263.261 253.036ZM263.261 254.653C262.62 254.648 262.078 254.694 261.636 254.791C261.194 254.882 260.857 255.02 260.626 255.203C260.399 255.386 260.289 255.61 260.294 255.874C260.289 256.149 260.399 256.378 260.626 256.561C260.852 256.744 261.183 256.882 261.62 256.973C262.062 257.065 262.609 257.111 263.261 257.111C263.902 257.111 264.441 257.065 264.878 256.973C265.315 256.882 265.643 256.744 265.864 256.561C266.085 256.378 266.196 256.149 266.196 255.874C266.196 255.61 266.083 255.386 265.856 255.203C265.635 255.014 265.306 254.874 264.87 254.783C264.433 254.691 263.897 254.648 263.261 254.653ZM287.884 252.963H274.464V251.314H287.884V252.963ZM282.185 251.678H280.107V249.398H282.185V251.678ZM286.243 258.728H284.19V255.599H275.943V253.99H286.243V258.728ZM278.207 245.712H284.109V244.37H286.162V250.069H276.17V244.37H278.207V245.712ZM284.109 248.444V247.232H278.207V248.444H284.109ZM293.987 248.016C293.982 249.175 293.817 250.279 293.494 251.33C293.171 252.381 292.694 253.314 292.063 254.128C291.432 254.936 290.672 255.548 289.783 255.963L288.603 254.338C289.395 253.982 290.069 253.47 290.624 252.802C291.184 252.128 291.605 251.379 291.885 250.554C292.171 249.724 292.314 248.878 292.314 248.016V246.302H293.987V248.016ZM294.416 248.016C294.416 248.84 294.556 249.643 294.836 250.425C295.116 251.201 295.531 251.904 296.081 252.535C296.636 253.16 297.313 253.637 298.11 253.966L296.995 255.583C296.084 255.2 295.313 254.626 294.682 253.861C294.052 253.09 293.578 252.204 293.26 251.201C292.942 250.199 292.785 249.137 292.791 248.016V246.302H294.416V248.016ZM297.504 247.118H289.193V245.437H297.504V247.118ZM301.037 258.728H298.943V243.998H301.037V258.728ZM317.818 246.334H308.408V244.685H317.818V246.334ZM320.219 251.621H306.767V249.964H320.219V251.621ZM318.627 245.865C318.627 246.717 318.6 247.477 318.546 248.145C318.497 248.813 318.373 249.573 318.174 250.425L316.104 250.368C316.244 249.802 316.347 249.266 316.411 248.759C316.482 248.247 316.525 247.795 316.541 247.401C316.557 247.008 316.568 246.536 316.573 245.986V245.865V244.685H318.627V245.865ZM318.578 258.566H308.343V253.19H318.578V258.566ZM310.38 256.909H316.525V254.791H310.38V256.909ZM324.463 244.895C325.109 244.895 325.691 245.049 326.209 245.356C326.726 245.658 327.13 246.083 327.422 246.633C327.718 247.178 327.866 247.797 327.866 248.493C327.866 249.193 327.718 249.813 327.422 250.352C327.13 250.891 326.726 251.312 326.209 251.613C325.691 251.915 325.109 252.066 324.463 252.066C323.816 252.066 323.236 251.915 322.724 251.613C322.212 251.312 321.811 250.891 321.52 250.352C321.234 249.813 321.091 249.193 321.091 248.493C321.091 247.803 321.234 247.183 321.52 246.633C321.811 246.083 322.212 245.658 322.724 245.356C323.236 245.049 323.816 244.895 324.463 244.895ZM324.463 246.657C324.161 246.657 323.894 246.73 323.662 246.876C323.43 247.016 323.25 247.226 323.121 247.506C322.991 247.781 322.929 248.11 322.935 248.493C322.929 248.875 322.991 249.207 323.121 249.487C323.25 249.762 323.43 249.975 323.662 250.126C323.894 250.277 324.161 250.352 324.463 250.352C324.759 250.352 325.023 250.277 325.255 250.126C325.492 249.975 325.673 249.762 325.797 249.487C325.926 249.207 325.991 248.875 325.991 248.493C325.991 248.11 325.926 247.781 325.797 247.506C325.673 247.226 325.495 247.016 325.263 246.876C325.031 246.73 324.764 246.657 324.463 246.657ZM333.663 252.818H331.698V244.03H333.663V252.818ZM332.256 249.245H329.871V247.595H332.256V249.245ZM330.502 252.737H328.578V244.281H330.502V252.737ZM333.663 258.728H331.617V255.106H323.492V253.465H333.663V258.728Z" fill="black"/>
<path d="M245.931 305.338C245.931 306.001 245.806 306.623 245.555 307.206C245.308 307.784 244.951 308.291 244.482 308.727C244.013 309.164 243.465 309.491 242.839 309.71L242.238 308.818C242.792 308.628 243.275 308.354 243.687 307.994C244.104 307.634 244.421 307.226 244.639 306.769C244.862 306.308 244.973 305.831 244.973 305.338V304.507H245.931V305.338ZM246.137 305.338C246.137 305.807 246.248 306.258 246.471 306.69C246.693 307.119 247.008 307.503 247.416 307.842C247.829 308.182 248.31 308.438 248.86 308.612L248.271 309.504C247.649 309.297 247.105 308.988 246.64 308.576C246.179 308.16 245.822 307.674 245.567 307.121C245.316 306.567 245.191 305.973 245.191 305.338V304.507H246.137V305.338ZM251.127 309.952H249.981V303.386H251.127V309.952ZM251.127 314.251H249.981V311.432H243.766V310.492H251.127V314.251ZM248.538 305.041H242.535V304.113H248.538V305.041ZM256.983 311.298H255.825V308.885H256.983V311.298ZM261.828 311.638H260.676V303.398H261.828V311.638ZM262.089 314.039H254.236V313.087H262.089V314.039ZM255.394 313.354H254.236V310.838H255.394V313.354ZM252.733 308.364C254.184 308.352 255.465 308.327 256.577 308.291C257.693 308.25 258.76 308.166 259.778 308.036L259.845 308.867C258.79 309.037 257.684 309.15 256.528 309.206C255.376 309.263 254.162 309.289 252.884 309.285L252.733 308.364ZM260.961 310.601H258.481V309.789H260.961V310.601ZM256.292 303.816C256.813 303.816 257.28 303.895 257.693 304.053C258.105 304.21 258.424 304.435 258.651 304.726C258.877 305.017 258.99 305.35 258.99 305.726C258.99 306.11 258.877 306.444 258.651 306.727C258.424 307.01 258.105 307.23 257.693 307.387C257.284 307.545 256.817 307.624 256.292 307.624C255.758 307.624 255.287 307.545 254.879 307.387C254.471 307.23 254.153 307.01 253.927 306.727C253.701 306.444 253.588 306.11 253.588 305.726C253.588 305.35 253.701 305.017 253.927 304.726C254.153 304.431 254.471 304.206 254.879 304.053C255.291 303.895 255.762 303.816 256.292 303.816ZM256.292 304.677C255.973 304.673 255.692 304.713 255.449 304.798C255.207 304.883 255.017 305.007 254.879 305.168C254.746 305.33 254.681 305.516 254.685 305.726C254.681 305.94 254.746 306.126 254.879 306.284C255.017 306.442 255.207 306.565 255.449 306.654C255.692 306.739 255.973 306.781 256.292 306.781C256.603 306.781 256.878 306.739 257.116 306.654C257.359 306.565 257.549 306.442 257.686 306.284C257.824 306.126 257.893 305.94 257.893 305.726C257.893 305.516 257.824 305.33 257.686 305.168C257.549 305.007 257.359 304.883 257.116 304.798C256.878 304.713 256.603 304.673 256.292 304.677ZM274.952 311.559H273.406V303.319H274.952V311.559ZM276.444 307.963H274.504V306.696H276.444V307.963ZM272.745 305.69H266.191V304.471H272.745V305.69ZM269.477 306.078C270.002 306.078 270.471 306.169 270.884 306.351C271.296 306.528 271.617 306.779 271.848 307.102C272.078 307.426 272.193 307.798 272.193 308.218C272.193 308.635 272.078 309.002 271.848 309.322C271.617 309.641 271.296 309.89 270.884 310.068C270.471 310.241 270.002 310.328 269.477 310.328C268.943 310.328 268.468 310.241 268.052 310.068C267.64 309.89 267.316 309.641 267.082 309.322C266.851 309.002 266.736 308.635 266.736 308.218C266.736 307.798 266.851 307.426 267.082 307.102C267.316 306.779 267.64 306.528 268.052 306.351C268.468 306.169 268.943 306.078 269.477 306.078ZM269.477 307.266C269.226 307.266 269.008 307.303 268.822 307.375C268.636 307.448 268.493 307.557 268.392 307.703C268.291 307.844 268.24 308.016 268.24 308.218C268.24 308.416 268.291 308.586 268.392 308.727C268.493 308.865 268.636 308.97 268.822 309.043C269.008 309.116 269.226 309.152 269.477 309.152C269.724 309.152 269.94 309.116 270.126 309.043C270.316 308.97 270.463 308.865 270.568 308.727C270.673 308.586 270.726 308.416 270.726 308.218C270.726 308.016 270.673 307.844 270.568 307.703C270.463 307.557 270.316 307.448 270.126 307.375C269.94 307.303 269.724 307.266 269.477 307.266ZM270.247 305.071H268.701V303.301H270.247V305.071ZM275.346 314.154H267.791V312.905H275.346V314.154ZM269.337 313.439H267.791V310.922H269.337V313.439ZM287.925 306.138H285.051V304.92H287.925V306.138ZM287.968 308.37H285.051V307.109H287.968V308.37ZM288.98 309.77H287.44V303.295H288.98V309.77ZM285.385 309.164H280.14V304.113H285.385V309.164ZM281.674 307.945H283.863V305.338H281.674V307.945ZM285.209 310.061C285.993 310.061 286.67 310.146 287.24 310.316C287.81 310.482 288.246 310.726 288.55 311.05C288.857 311.373 289.012 311.759 289.017 312.208C289.012 312.657 288.857 313.041 288.55 313.36C288.246 313.683 287.81 313.928 287.24 314.094C286.67 314.259 285.993 314.342 285.209 314.342C284.429 314.342 283.753 314.259 283.183 314.094C282.618 313.928 282.181 313.683 281.874 313.36C281.571 313.041 281.419 312.657 281.419 312.208C281.419 311.759 281.571 311.373 281.874 311.05C282.181 310.726 282.618 310.482 283.183 310.316C283.753 310.146 284.429 310.061 285.209 310.061ZM285.209 311.238C284.716 311.238 284.303 311.274 283.972 311.347C283.64 311.416 283.388 311.523 283.214 311.668C283.04 311.81 282.953 311.99 282.953 312.208C282.953 312.414 283.04 312.588 283.214 312.729C283.388 312.871 283.64 312.978 283.972 313.051C284.307 313.123 284.72 313.162 285.209 313.166C285.702 313.162 286.116 313.123 286.452 313.051C286.791 312.978 287.046 312.871 287.216 312.729C287.385 312.588 287.47 312.414 287.47 312.208C287.47 311.99 287.385 311.81 287.216 311.668C287.046 311.523 286.793 311.416 286.458 311.347C286.122 311.274 285.706 311.238 285.209 311.238ZM301.935 309.698H300.37V303.295H301.935V309.698ZM303.408 307.187H301.48V305.926H303.408V307.187ZM298.297 309.886C299.053 309.886 299.712 309.975 300.273 310.152C300.835 310.326 301.266 310.581 301.565 310.916C301.868 311.252 302.02 311.648 302.02 312.105C302.02 312.57 301.868 312.97 301.565 313.305C301.266 313.641 300.835 313.898 300.273 314.075C299.712 314.253 299.053 314.342 298.297 314.342C297.533 314.342 296.866 314.253 296.296 314.075C295.726 313.898 295.285 313.641 294.974 313.305C294.667 312.97 294.513 312.57 294.513 312.105C294.513 311.648 294.667 311.252 294.974 310.916C295.285 310.581 295.726 310.326 296.296 310.152C296.866 309.975 297.533 309.886 298.297 309.886ZM298.297 311.116C297.816 311.116 297.407 311.153 297.072 311.226C296.736 311.294 296.48 311.403 296.302 311.553C296.128 311.703 296.043 311.887 296.047 312.105C296.043 312.323 296.128 312.509 296.302 312.663C296.476 312.812 296.73 312.925 297.066 313.002C297.405 313.079 297.816 313.117 298.297 313.117C298.766 313.117 299.166 313.079 299.497 313.002C299.833 312.925 300.087 312.812 300.261 312.663C300.435 312.509 300.522 312.323 300.522 312.105C300.522 311.887 300.435 311.703 300.261 311.553C300.087 311.403 299.833 311.294 299.497 311.226C299.166 311.153 298.766 311.116 298.297 311.116ZM294.471 307.854C295.76 307.854 296.757 307.832 297.46 307.788C298.163 307.743 298.84 307.652 299.491 307.515L299.631 308.752C298.98 308.893 298.293 308.986 297.569 309.031C296.846 309.075 295.813 309.097 294.471 309.097H293.549V307.854H294.471ZM298.515 305.29H295.083V308.709H293.549V304.047H298.515V305.29ZM248.544 323.89H246.477V322.95H248.544V323.89ZM248.544 327.219H246.477V326.267H248.544V327.219ZM251.467 331.251H250.357V320.386H251.467V331.251ZM249.284 330.718H248.193V320.592H249.284V330.718ZM244.585 321.253C245.054 321.253 245.466 321.41 245.822 321.726C246.182 322.037 246.458 322.482 246.652 323.06C246.851 323.634 246.95 324.309 246.95 325.085C246.95 325.861 246.851 326.538 246.652 327.116C246.458 327.694 246.182 328.141 245.822 328.456C245.466 328.767 245.054 328.923 244.585 328.923C244.112 328.923 243.7 328.767 243.348 328.456C243 328.141 242.727 327.694 242.529 327.116C242.335 326.538 242.238 325.861 242.238 325.085C242.238 324.309 242.335 323.634 242.529 323.06C242.727 322.482 243 322.037 243.348 321.726C243.7 321.41 244.112 321.253 244.585 321.253ZM244.585 322.344C244.318 322.344 244.088 322.451 243.894 322.665C243.704 322.88 243.556 323.195 243.451 323.611C243.346 324.024 243.293 324.515 243.293 325.085C243.293 325.659 243.346 326.15 243.451 326.558C243.556 326.966 243.704 327.28 243.894 327.498C244.088 327.716 244.318 327.823 244.585 327.819C244.848 327.823 245.078 327.716 245.276 327.498C245.474 327.28 245.626 326.966 245.731 326.558C245.836 326.146 245.888 325.655 245.888 325.085C245.888 324.515 245.836 324.024 245.731 323.611C245.626 323.195 245.474 322.88 245.276 322.665C245.078 322.451 244.848 322.344 244.585 322.344ZM256.377 322.35C256.377 323.058 256.255 323.714 256.013 324.321C255.77 324.927 255.421 325.457 254.964 325.909C254.507 326.358 253.966 326.698 253.339 326.928L252.702 326.012C253.264 325.822 253.749 325.542 254.158 325.17C254.57 324.798 254.883 324.371 255.097 323.89C255.312 323.405 255.419 322.892 255.419 322.35V321.059H256.377V322.35ZM256.559 322.374C256.559 322.864 256.666 323.332 256.88 323.781C257.098 324.226 257.408 324.622 257.808 324.97C258.212 325.317 258.685 325.584 259.227 325.77L258.632 326.679C258.018 326.465 257.486 326.144 257.038 325.715C256.589 325.283 256.243 324.782 256.001 324.212C255.758 323.642 255.637 323.029 255.637 322.374V321.059H256.559V322.374ZM261.325 328.395H260.179V320.392H261.325V328.395ZM262.907 324.636H260.973V323.66H262.907V324.636ZM261.791 331.039H254.449V330.087H261.791V331.039ZM255.625 330.566H254.449V327.619H255.625V330.566ZM274.698 321.883H267.67V320.943H274.698V321.883ZM276.371 325.849H266.427V324.909H276.371V325.849ZM275.11 321.774C275.11 322.405 275.09 322.975 275.049 323.484C275.009 323.989 274.914 324.569 274.764 325.224L273.612 325.17C273.721 324.733 273.8 324.321 273.849 323.933C273.901 323.541 273.934 323.197 273.946 322.902C273.958 322.607 273.964 322.257 273.964 321.853V321.774V320.943H275.11V321.774ZM275.128 331.118H267.634V327.231H275.128V331.118ZM268.774 330.184H273.988V328.135H268.774V330.184ZM279.68 321.059C280.153 321.059 280.58 321.17 280.96 321.392C281.34 321.61 281.637 321.918 281.851 322.314C282.069 322.706 282.178 323.155 282.178 323.66C282.178 324.161 282.069 324.606 281.851 324.994C281.637 325.382 281.34 325.685 280.96 325.903C280.584 326.122 280.157 326.231 279.68 326.231C279.199 326.231 278.771 326.122 278.395 325.903C278.019 325.685 277.724 325.382 277.51 324.994C277.299 324.606 277.194 324.161 277.194 323.66C277.194 323.159 277.299 322.71 277.51 322.314C277.724 321.918 278.019 321.61 278.395 321.392C278.771 321.17 279.199 321.059 279.68 321.059ZM279.68 322.053C279.401 322.053 279.151 322.12 278.928 322.253C278.71 322.382 278.538 322.57 278.413 322.817C278.288 323.064 278.227 323.345 278.231 323.66C278.227 323.971 278.288 324.25 278.413 324.497C278.538 324.739 278.71 324.929 278.928 325.067C279.151 325.204 279.401 325.273 279.68 325.273C279.955 325.273 280.204 325.204 280.426 325.067C280.648 324.929 280.82 324.739 280.941 324.497C281.067 324.25 281.129 323.971 281.129 323.66C281.129 323.345 281.067 323.064 280.941 322.817C280.82 322.57 280.648 322.382 280.426 322.253C280.208 322.12 279.959 322.053 279.68 322.053ZM286.362 326.873H285.265V320.398H286.362V326.873ZM285.598 324.078H283.622V323.144H285.598V324.078ZM284.01 326.807H282.93V320.598H284.01V326.807ZM286.362 331.251H285.228V328.359H278.977V327.437H286.362V331.251Z" fill="#615D64"/>
<path d="M249.781 439.473H248.205L244.348 433.894H244.282V439.473H242.463V430.693H244.063L247.889 436.265H247.968V430.693H249.781V439.473ZM255.055 435.974H253.527V434.028H255.055V435.974ZM260.148 435.956H258.596V429.565H260.148V435.956ZM250.804 433.446C252.199 433.45 253.472 433.438 254.624 433.409C255.781 433.377 256.886 433.312 257.941 433.215L258.014 434.173C256.918 434.323 255.787 434.42 254.618 434.464C253.45 434.509 252.231 434.525 250.962 434.513L250.804 433.446ZM260.148 438.866H253.951V439.758H252.423V437.86H258.608V437.332H252.381V436.283H260.148V438.866ZM260.403 440.51H252.423V439.43H260.403V440.51ZM259.093 435.604H256.601V434.67H259.093V435.604ZM254.346 429.717C254.891 429.717 255.374 429.785 255.795 429.923C256.219 430.056 256.547 430.25 256.777 430.505C257.011 430.755 257.129 431.044 257.129 431.372C257.129 431.707 257.011 432 256.777 432.251C256.547 432.502 256.221 432.694 255.801 432.827C255.38 432.961 254.895 433.027 254.346 433.027C253.788 433.027 253.299 432.961 252.878 432.827C252.462 432.694 252.136 432.502 251.902 432.251C251.667 432 251.55 431.707 251.55 431.372C251.55 431.044 251.667 430.755 251.902 430.505C252.136 430.25 252.464 430.056 252.884 429.923C253.305 429.785 253.792 429.717 254.346 429.717ZM254.346 430.723C254.075 430.723 253.838 430.749 253.636 430.802C253.434 430.85 253.278 430.925 253.169 431.026C253.064 431.123 253.012 431.238 253.012 431.372C253.012 431.509 253.064 431.625 253.169 431.718C253.278 431.81 253.432 431.883 253.63 431.936C253.832 431.984 254.071 432.009 254.346 432.009C254.62 432.009 254.857 431.984 255.055 431.936C255.257 431.883 255.413 431.81 255.522 431.718C255.631 431.625 255.686 431.509 255.686 431.372C255.686 431.238 255.631 431.123 255.522 431.026C255.413 430.925 255.257 430.85 255.055 430.802C254.853 430.749 254.616 430.723 254.346 430.723ZM273.582 435.107H272.042V429.541H273.582V435.107ZM270.029 429.977C270.025 430.947 269.833 431.79 269.453 432.506C269.077 433.217 268.511 433.809 267.755 434.282C267.003 434.755 266.065 435.115 264.941 435.362L264.414 434.107C265.319 433.925 266.063 433.674 266.645 433.355C267.231 433.031 267.66 432.657 267.931 432.233C268.206 431.804 268.343 431.329 268.343 430.808V429.977H270.029ZM268.98 431.22H265.032V429.977H268.98V431.22ZM272.224 432.118H269.592V430.941H272.224V432.118ZM272.163 434.258H269.513V433.082H272.163V434.258ZM273.582 438.527H267.81V439.921H266.263V437.381H272.024V436.72H266.245V435.507H273.582V438.527ZM273.824 440.479H266.263V439.254H273.824V440.479ZM284.489 440.588H283.033V429.541H284.489V440.588ZM281.19 434.586H279.329V433.343H281.19V434.586ZM282.233 440.085H280.784V429.735H282.233V440.085ZM278.122 432.506C278.118 433.367 278.029 434.185 277.855 434.961C277.681 435.738 277.411 436.437 277.043 437.059C276.679 437.682 276.216 438.165 275.654 438.509L274.72 437.369C275.238 437.049 275.664 436.633 276 436.12C276.335 435.602 276.578 435.038 276.727 434.428C276.877 433.813 276.952 433.173 276.952 432.506V431.348H278.122V432.506ZM278.443 432.506C278.443 433.157 278.516 433.773 278.662 434.355C278.807 434.937 279.042 435.471 279.365 435.956C279.692 436.437 280.113 436.825 280.626 437.12L279.723 438.254C279.157 437.922 278.694 437.464 278.334 436.878C277.974 436.291 277.712 435.63 277.546 434.895C277.384 434.155 277.303 433.359 277.303 432.506V431.348H278.443V432.506ZM280.117 431.912H275.139V430.675H280.117V431.912ZM296.728 431.293H289.67V430.056H296.728V431.293ZM298.529 435.259H288.439V434.016H298.529V435.259ZM297.334 430.941C297.334 431.58 297.314 432.15 297.273 432.651C297.237 433.153 297.144 433.722 296.995 434.361L295.442 434.319C295.547 433.894 295.624 433.492 295.673 433.112C295.725 432.728 295.758 432.389 295.77 432.093C295.782 431.798 295.79 431.445 295.794 431.032V430.941V430.056H297.334V430.941ZM297.298 440.467H289.621V436.435H297.298V440.467ZM291.149 439.224H295.758V437.635H291.149V439.224ZM301.686 430.214C302.171 430.214 302.608 430.329 302.996 430.559C303.384 430.786 303.687 431.105 303.905 431.517C304.128 431.926 304.239 432.391 304.239 432.912C304.239 433.438 304.128 433.902 303.905 434.307C303.687 434.711 303.384 435.026 302.996 435.252C302.608 435.479 302.171 435.592 301.686 435.592C301.201 435.592 300.767 435.479 300.383 435.252C299.999 435.026 299.697 434.711 299.479 434.307C299.265 433.902 299.158 433.438 299.158 432.912C299.158 432.395 299.265 431.93 299.479 431.517C299.697 431.105 299.999 430.786 300.383 430.559C300.767 430.329 301.201 430.214 301.686 430.214ZM301.686 431.536C301.46 431.536 301.26 431.59 301.086 431.699C300.912 431.804 300.777 431.962 300.68 432.172C300.583 432.378 300.536 432.625 300.54 432.912C300.536 433.199 300.583 433.448 300.68 433.658C300.777 433.864 300.912 434.024 301.086 434.137C301.26 434.25 301.46 434.307 301.686 434.307C301.909 434.307 302.107 434.25 302.28 434.137C302.458 434.024 302.594 433.864 302.687 433.658C302.784 433.448 302.832 433.199 302.832 432.912C302.832 432.625 302.784 432.378 302.687 432.172C302.594 431.962 302.46 431.804 302.286 431.699C302.113 431.59 301.913 431.536 301.686 431.536ZM308.586 436.156H307.113V429.565H308.586V436.156ZM307.531 433.476H305.743V432.239H307.531V433.476ZM306.216 436.095H304.773V429.753H306.216V436.095ZM308.586 440.588H307.052V437.872H300.959V436.641H308.586V440.588Z" fill="#7A7CEA"/>
<path d="M602.088 314.368C601.447 314.368 600.867 314.248 600.348 314.007C599.829 313.762 599.417 313.427 599.11 313.003C598.804 312.574 598.641 312.088 598.622 311.546H600.129C600.157 311.833 600.261 312.093 600.44 312.324C600.619 312.55 600.853 312.732 601.14 312.868C601.433 313 601.749 313.066 602.088 313.066C602.499 313.066 602.864 312.974 603.185 312.791C603.505 312.607 603.758 312.354 603.942 312.034C604.126 311.708 604.218 311.347 604.218 310.951C604.218 310.536 604.123 310.166 603.935 309.841C603.751 309.515 603.489 309.258 603.149 309.07C602.815 308.881 602.437 308.787 602.018 308.787C601.593 308.777 601.228 308.848 600.921 308.999C600.619 309.145 600.383 309.374 600.214 309.685H598.749L599.414 303.983H605.215V305.32H600.709L600.355 308.178H600.447C600.669 307.975 600.949 307.81 601.289 307.683C601.633 307.556 601.996 307.492 602.378 307.492C603.015 307.492 603.588 307.638 604.097 307.931C604.611 308.218 605.012 308.624 605.3 309.147C605.588 309.671 605.731 310.258 605.731 310.909C605.731 311.574 605.576 312.168 605.265 312.691C604.953 313.215 604.522 313.625 603.97 313.922C603.418 314.219 602.791 314.368 602.088 314.368ZM610.88 314.368C610.092 314.368 609.418 314.163 608.856 313.753C608.295 313.342 607.866 312.743 607.569 311.956C607.272 311.168 607.123 310.218 607.123 309.105C607.123 308.006 607.272 307.063 607.569 306.275C607.866 305.483 608.295 304.879 608.856 304.464C609.422 304.049 610.097 303.842 610.88 303.842C611.658 303.842 612.33 304.049 612.896 304.464C613.462 304.879 613.893 305.483 614.19 306.275C614.487 307.063 614.636 308.006 614.636 309.105C614.636 310.218 614.487 311.168 614.19 311.956C613.898 312.743 613.469 313.342 612.903 313.753C612.342 314.163 611.667 314.368 610.88 314.368ZM610.88 313.031C611.342 313.031 611.738 312.88 612.068 312.578C612.403 312.276 612.655 311.833 612.825 311.248C612.999 310.664 613.084 309.949 613.08 309.105C613.08 308.266 612.992 307.551 612.818 306.962C612.643 306.372 612.391 305.924 612.061 305.617C611.731 305.311 611.337 305.158 610.88 305.158C610.417 305.158 610.021 305.311 609.691 305.617C609.366 305.924 609.113 306.372 608.934 306.962C608.755 307.551 608.665 308.266 608.665 309.105C608.665 309.949 608.755 310.664 608.934 311.248C609.113 311.833 609.366 312.276 609.691 312.578C610.017 312.88 610.413 313.031 610.88 313.031ZM616.502 317.155H615.306L616.056 313.25H617.648L616.502 317.155ZM622.789 314.368C622.001 314.368 621.327 314.163 620.766 313.753C620.204 313.342 619.775 312.743 619.478 311.956C619.181 311.168 619.033 310.218 619.033 309.105C619.033 308.006 619.181 307.063 619.478 306.275C619.775 305.483 620.204 304.879 620.766 304.464C621.332 304.049 622.006 303.842 622.789 303.842C623.567 303.842 624.239 304.049 624.805 304.464C625.371 304.879 625.802 305.483 626.099 306.275C626.397 307.063 626.545 308.006 626.545 309.105C626.545 310.218 626.397 311.168 626.099 311.956C625.807 312.743 625.378 313.342 624.812 313.753C624.251 314.163 623.576 314.368 622.789 314.368ZM622.789 313.031C623.251 313.031 623.647 312.88 623.977 312.578C624.312 312.276 624.564 311.833 624.734 311.248C624.909 310.664 624.994 309.949 624.989 309.105C624.989 308.266 624.902 307.551 624.727 306.962C624.553 306.372 624.3 305.924 623.97 305.617C623.64 305.311 623.246 305.158 622.789 305.158C622.327 305.158 621.931 305.311 621.6 305.617C621.275 305.924 621.023 306.372 620.843 306.962C620.664 307.551 620.575 308.266 620.575 309.105C620.575 309.949 620.664 310.664 620.843 311.248C621.023 311.833 621.275 312.276 621.6 312.578C621.926 312.88 622.322 313.031 622.789 313.031ZM631.658 314.368C630.87 314.368 630.196 314.163 629.635 313.753C629.074 313.342 628.644 312.743 628.347 311.956C628.05 311.168 627.902 310.218 627.902 309.105C627.902 308.006 628.05 307.063 628.347 306.275C628.644 305.483 629.074 304.879 629.635 304.464C630.201 304.049 630.875 303.842 631.658 303.842C632.436 303.842 633.108 304.049 633.674 304.464C634.24 304.879 634.672 305.483 634.969 306.275C635.266 307.063 635.414 308.006 635.414 309.105C635.414 310.218 635.266 311.168 634.969 311.956C634.676 312.743 634.247 313.342 633.681 313.753C633.12 314.163 632.446 314.368 631.658 314.368ZM631.658 313.031C632.12 313.031 632.516 312.88 632.846 312.578C633.181 312.276 633.434 311.833 633.603 311.248C633.778 310.664 633.863 309.949 633.858 309.105C633.858 308.266 633.771 307.551 633.596 306.962C633.422 306.372 633.169 305.924 632.839 305.617C632.509 305.311 632.115 305.158 631.658 305.158C631.196 305.158 630.8 305.311 630.47 305.617C630.144 305.924 629.892 306.372 629.713 306.962C629.533 307.551 629.444 308.266 629.444 309.105C629.444 309.949 629.533 310.664 629.713 311.248C629.892 311.833 630.144 312.276 630.47 312.578C630.795 312.88 631.191 313.031 631.658 313.031ZM640.527 314.368C639.74 314.368 639.065 314.163 638.504 313.753C637.943 313.342 637.514 312.743 637.216 311.956C636.919 311.168 636.771 310.218 636.771 309.105C636.771 308.006 636.919 307.063 637.216 306.275C637.514 305.483 637.943 304.879 638.504 304.464C639.07 304.049 639.744 303.842 640.527 303.842C641.305 303.842 641.977 304.049 642.543 304.464C643.109 304.879 643.541 305.483 643.838 306.275C644.135 307.063 644.283 308.006 644.283 309.105C644.283 310.218 644.135 311.168 643.838 311.956C643.545 312.743 643.116 313.342 642.55 313.753C641.989 314.163 641.315 314.368 640.527 314.368ZM640.527 313.031C640.989 313.031 641.385 312.88 641.716 312.578C642.05 312.276 642.303 311.833 642.472 311.248C642.647 310.664 642.732 309.949 642.727 309.105C642.727 308.266 642.64 307.551 642.465 306.962C642.291 306.372 642.039 305.924 641.708 305.617C641.378 305.311 640.985 305.158 640.527 305.158C640.065 305.158 639.669 305.311 639.339 305.617C639.013 305.924 638.761 306.372 638.582 306.962C638.403 307.551 638.313 308.266 638.313 309.105C638.313 309.949 638.403 310.664 638.582 311.248C638.761 311.833 639.013 312.276 639.339 312.578C639.664 312.88 640.06 313.031 640.527 313.031ZM650.288 311.977H648.936V309.162H650.288V311.977ZM655.94 312.373H654.596V302.76H655.94V312.373ZM656.244 315.174H647.083V314.064H656.244V315.174ZM648.434 314.375H647.083V311.439H648.434V314.375ZM645.329 308.553C647.022 308.539 648.517 308.511 649.814 308.468C651.115 308.421 652.36 308.322 653.549 308.171L653.626 309.14C652.396 309.338 651.106 309.47 649.757 309.536C648.413 309.603 646.996 309.633 645.506 309.628L645.329 308.553ZM654.928 311.164H652.035V310.216H654.928V311.164ZM649.481 303.248C650.089 303.248 650.634 303.34 651.115 303.524C651.596 303.707 651.969 303.969 652.233 304.309C652.497 304.648 652.629 305.037 652.629 305.476C652.629 305.924 652.497 306.313 652.233 306.643C651.969 306.973 651.596 307.23 651.115 307.414C650.639 307.598 650.094 307.69 649.481 307.69C648.859 307.69 648.309 307.598 647.833 307.414C647.357 307.23 646.986 306.973 646.722 306.643C646.458 306.313 646.326 305.924 646.326 305.476C646.326 305.037 646.458 304.648 646.722 304.309C646.986 303.965 647.357 303.703 647.833 303.524C648.314 303.34 648.863 303.248 649.481 303.248ZM649.481 304.252C649.109 304.247 648.781 304.295 648.498 304.394C648.215 304.493 647.993 304.637 647.833 304.825C647.677 305.014 647.602 305.231 647.606 305.476C647.602 305.726 647.677 305.943 647.833 306.127C647.993 306.311 648.215 306.455 648.498 306.558C648.781 306.657 649.109 306.707 649.481 306.707C649.844 306.707 650.165 306.657 650.443 306.558C650.726 306.455 650.948 306.311 651.108 306.127C651.268 305.943 651.349 305.726 651.349 305.476C651.349 305.231 651.268 305.014 651.108 304.825C650.948 304.637 650.726 304.493 650.443 304.394C650.165 304.295 649.844 304.247 649.481 304.252Z" fill="#615D64"/>
<path d="M627.566 371.044L631.125 367.457C631.549 367.014 631.874 366.653 632.101 366.375C632.332 366.097 632.506 365.828 632.624 365.569C632.747 365.309 632.808 365.033 632.808 364.741C632.808 364.411 632.726 364.123 632.561 363.878C632.396 363.628 632.169 363.435 631.882 363.298C631.594 363.161 631.271 363.093 630.912 363.093C630.535 363.093 630.207 363.168 629.929 363.319C629.651 363.465 629.434 363.675 629.278 363.949C629.127 364.222 629.052 364.541 629.052 364.904H627.573C627.569 364.286 627.71 363.744 627.998 363.277C628.286 362.805 628.686 362.44 629.2 362.18C629.715 361.921 630.297 361.791 630.948 361.791C631.594 361.791 632.169 361.918 632.674 362.173C633.183 362.423 633.579 362.77 633.862 363.213C634.145 363.652 634.287 364.144 634.287 364.691C634.282 365.088 634.207 365.467 634.06 365.83C633.919 366.189 633.671 366.59 633.318 367.033C632.969 367.472 632.471 368.009 631.825 368.646L629.738 370.761V370.839H634.456V372.176H627.573L627.566 371.044ZM639.746 372.317C639.048 372.317 638.423 372.199 637.872 371.964C637.324 371.728 636.891 371.395 636.57 370.966C636.249 370.537 636.082 370.047 636.068 369.495H637.638C637.657 369.792 637.761 370.051 637.949 370.273C638.143 370.495 638.393 370.667 638.699 370.789C639.01 370.912 639.357 370.973 639.739 370.973C640.149 370.973 640.517 370.905 640.843 370.768C641.173 370.627 641.427 370.431 641.607 370.181C641.786 369.926 641.875 369.636 641.875 369.311C641.871 368.971 641.779 368.669 641.6 368.405C641.425 368.137 641.161 367.929 640.807 367.783C640.458 367.637 640.046 367.564 639.569 367.564H638.692V366.297H639.569C639.956 366.297 640.3 366.229 640.602 366.092C640.904 365.955 641.135 365.764 641.295 365.519C641.46 365.274 641.543 364.991 641.543 364.67C641.543 364.359 641.47 364.083 641.324 363.843C641.182 363.602 640.977 363.418 640.708 363.291C640.439 363.159 640.128 363.093 639.774 363.093C639.425 363.093 639.102 363.154 638.805 363.277C638.508 363.399 638.265 363.576 638.077 363.807C637.893 364.034 637.794 364.298 637.78 364.6H636.28C636.294 364.052 636.459 363.564 636.775 363.135C637.096 362.706 637.518 362.376 638.041 362.145C638.569 361.909 639.15 361.791 639.782 361.791C640.437 361.791 641.012 361.916 641.508 362.166C642.007 362.416 642.389 362.756 642.654 363.185C642.922 363.609 643.054 364.074 643.05 364.578C643.054 364.96 642.984 365.307 642.837 365.618C642.691 365.929 642.479 366.191 642.201 366.403C641.927 366.611 641.607 366.759 641.239 366.849V366.927C641.696 366.988 642.09 367.13 642.42 367.351C642.755 367.568 643.01 367.849 643.184 368.193C643.359 368.537 643.443 368.926 643.439 369.36C643.443 369.922 643.286 370.426 642.965 370.874C642.649 371.322 642.208 371.676 641.642 371.935C641.081 372.19 640.449 372.317 639.746 372.317ZM654.366 363.779H650.78V362.69H654.366V363.779ZM654.395 366.318H650.78V365.201H654.395V366.318ZM655.229 368.179H653.885V360.695H655.229V368.179ZM651.127 367.344H645.234V361.65H651.127V367.344ZM646.571 366.262H649.804V362.732H646.571V366.262ZM650.978 368.54C651.865 368.54 652.629 368.634 653.27 368.823C653.911 369.011 654.404 369.287 654.748 369.65C655.097 370.013 655.272 370.45 655.272 370.959C655.272 371.464 655.097 371.895 654.748 372.254C654.404 372.612 653.911 372.886 653.27 373.074C652.629 373.263 651.865 373.357 650.978 373.357C650.096 373.357 649.334 373.263 648.693 373.074C648.052 372.886 647.559 372.612 647.215 372.254C646.87 371.895 646.698 371.464 646.698 370.959C646.698 370.45 646.87 370.013 647.215 369.65C647.559 369.287 648.052 369.011 648.693 368.823C649.334 368.634 650.096 368.54 650.978 368.54ZM650.978 369.573C650.36 369.577 649.83 369.634 649.386 369.742C648.948 369.846 648.611 370.002 648.375 370.209C648.144 370.417 648.028 370.667 648.028 370.959C648.028 371.242 648.144 371.485 648.375 371.688C648.611 371.89 648.948 372.046 649.386 372.155C649.83 372.258 650.36 372.31 650.978 372.31C651.596 372.31 652.126 372.258 652.57 372.155C653.013 372.046 653.35 371.89 653.581 371.688C653.817 371.485 653.935 371.242 653.935 370.959C653.935 370.667 653.817 370.417 653.581 370.209C653.35 370.002 653.013 369.846 652.57 369.742C652.131 369.634 651.6 369.577 650.978 369.573Z" fill="#615D64"/>
<path d="M574.021 441.441H571.58V432.047H571.515L568.839 433.745V431.578L571.733 429.735H574.021V441.441ZM577.253 444.853H575.539L576.34 440.253H578.652L577.253 444.853ZM584.269 441.441H581.827V432.047H581.762L579.086 433.745V431.578L581.981 429.735H584.269V441.441ZM591.211 441.603C590.408 441.603 589.683 441.455 589.037 441.158C588.395 440.862 587.889 440.452 587.517 439.93C587.145 439.401 586.954 438.806 586.943 438.143H589.295C589.317 438.439 589.414 438.706 589.586 438.943C589.764 439.175 589.996 439.358 590.282 439.493C590.567 439.622 590.877 439.687 591.211 439.687C591.616 439.687 591.974 439.598 592.287 439.42C592.599 439.242 592.845 438.997 593.022 438.685C593.2 438.367 593.289 438.008 593.289 437.609C593.289 437.2 593.198 436.836 593.014 436.518C592.836 436.2 592.586 435.952 592.262 435.774C591.944 435.591 591.581 435.499 591.171 435.499C590.734 435.494 590.363 435.575 590.055 435.742C589.754 435.903 589.516 436.149 589.344 436.477H587.137L587.775 429.735H594.979V431.732H589.78L589.457 434.683H589.546C589.767 434.386 590.088 434.146 590.508 433.963C590.928 433.78 591.392 433.688 591.899 433.688C592.605 433.688 593.241 433.853 593.807 434.181C594.378 434.505 594.825 434.963 595.149 435.556C595.472 436.143 595.634 436.806 595.634 437.545C595.634 438.326 595.448 439.024 595.076 439.639C594.704 440.253 594.184 440.735 593.516 441.086C592.847 441.431 592.079 441.603 591.211 441.603ZM601.752 441.603C600.776 441.603 599.935 441.369 599.229 440.9C598.529 440.425 597.99 439.738 597.612 438.838C597.241 437.938 597.055 436.855 597.055 435.588C597.055 434.327 597.241 433.246 597.612 432.346C597.99 431.441 598.529 430.754 599.229 430.285C599.935 429.81 600.776 429.573 601.752 429.573C602.722 429.573 603.56 429.81 604.266 430.285C604.972 430.754 605.514 431.441 605.891 432.346C606.268 433.246 606.457 434.327 606.457 435.588C606.457 436.86 606.268 437.946 605.891 438.846C605.519 439.746 604.98 440.431 604.274 440.9C603.568 441.369 602.727 441.603 601.752 441.603ZM601.752 439.598C602.21 439.598 602.606 439.45 602.94 439.153C603.28 438.857 603.536 438.41 603.708 437.811C603.886 437.213 603.972 436.472 603.967 435.588C603.967 434.715 603.878 433.979 603.7 433.381C603.522 432.777 603.266 432.325 602.932 432.023C602.598 431.721 602.205 431.57 601.752 431.57C601.294 431.57 600.9 431.721 600.571 432.023C600.243 432.325 599.987 432.777 599.803 433.381C599.62 433.979 599.529 434.715 599.529 435.588C599.529 436.472 599.62 437.213 599.803 437.811C599.987 438.41 600.24 438.857 600.563 439.153C600.892 439.45 601.288 439.598 601.752 439.598ZM608.792 444.853H607.078L607.878 440.253H610.19L608.792 444.853ZM616.3 441.603C615.325 441.603 614.484 441.369 613.778 440.9C613.077 440.425 612.538 439.738 612.161 438.838C611.789 437.938 611.603 436.855 611.603 435.588C611.603 434.327 611.789 433.246 612.161 432.346C612.538 431.441 613.077 430.754 613.778 430.285C614.484 429.81 615.325 429.573 616.3 429.573C617.27 429.573 618.108 429.81 618.815 430.285C619.521 430.754 620.062 431.441 620.44 432.346C620.817 433.246 621.005 434.327 621.005 435.588C621.005 436.86 620.817 437.946 620.44 438.846C620.068 439.746 619.529 440.431 618.823 440.9C618.117 441.369 617.276 441.603 616.3 441.603ZM616.3 439.598C616.758 439.598 617.154 439.45 617.489 439.153C617.828 438.857 618.084 438.41 618.257 437.811C618.435 437.213 618.521 436.472 618.515 435.588C618.515 434.715 618.426 433.979 618.249 433.381C618.071 432.777 617.815 432.325 617.481 432.023C617.146 431.721 616.753 431.57 616.3 431.57C615.842 431.57 615.449 431.721 615.12 432.023C614.791 432.325 614.535 432.777 614.352 433.381C614.169 433.979 614.077 434.715 614.077 435.588C614.077 436.472 614.169 437.213 614.352 437.811C614.535 438.41 614.788 438.857 615.112 439.153C615.441 439.45 615.837 439.598 616.3 439.598ZM627.148 441.603C626.172 441.603 625.331 441.369 624.625 440.9C623.925 440.425 623.386 439.738 623.008 438.838C622.637 437.938 622.451 436.855 622.451 435.588C622.451 434.327 622.637 433.246 623.008 432.346C623.386 431.441 623.925 430.754 624.625 430.285C625.331 429.81 626.172 429.573 627.148 429.573C628.118 429.573 628.956 429.81 629.662 430.285C630.368 430.754 630.91 431.441 631.287 432.346C631.664 433.246 631.853 434.327 631.853 435.588C631.853 436.86 631.664 437.946 631.287 438.846C630.915 439.746 630.376 440.431 629.67 440.9C628.964 441.369 628.123 441.603 627.148 441.603ZM627.148 439.598C627.606 439.598 628.002 439.45 628.336 439.153C628.676 438.857 628.932 438.41 629.104 437.811C629.282 437.213 629.368 436.472 629.363 435.588C629.363 434.715 629.274 433.979 629.096 433.381C628.918 432.777 628.662 432.325 628.328 432.023C627.994 431.721 627.601 431.57 627.148 431.57C626.69 431.57 626.296 431.721 625.967 432.023C625.639 432.325 625.383 432.777 625.199 433.381C625.016 433.979 624.925 434.715 624.925 435.588C624.925 436.472 625.016 437.213 625.199 437.811C625.383 438.41 625.636 438.857 625.959 439.153C626.288 439.45 626.684 439.598 627.148 439.598ZM637.995 441.603C637.02 441.603 636.179 441.369 635.473 440.9C634.772 440.425 634.233 439.738 633.856 438.838C633.484 437.938 633.298 436.855 633.298 435.588C633.298 434.327 633.484 433.246 633.856 432.346C634.233 431.441 634.772 430.754 635.473 430.285C636.179 429.81 637.02 429.573 637.995 429.573C638.966 429.573 639.804 429.81 640.51 430.285C641.216 430.754 641.757 431.441 642.135 432.346C642.512 433.246 642.701 434.327 642.701 435.588C642.701 436.86 642.512 437.946 642.135 438.846C641.763 439.746 641.224 440.431 640.518 440.9C639.812 441.369 638.971 441.603 637.995 441.603ZM637.995 439.598C638.453 439.598 638.85 439.45 639.184 439.153C639.523 438.857 639.779 438.41 639.952 437.811C640.13 437.213 640.216 436.472 640.211 435.588C640.211 434.715 640.122 433.979 639.944 433.381C639.766 432.777 639.51 432.325 639.176 432.023C638.842 431.721 638.448 431.57 637.995 431.57C637.537 431.57 637.144 431.721 636.815 432.023C636.486 432.325 636.23 432.777 636.047 433.381C635.864 433.979 635.772 434.715 635.772 435.588C635.772 436.472 635.864 437.213 636.047 437.811C636.23 438.41 636.484 438.857 636.807 439.153C637.136 439.45 637.532 439.598 637.995 439.598ZM649.773 438.992H647.695V435.742H649.773V438.992ZM656.281 439.347H654.211V428.231H656.281V439.347ZM656.604 442.678H645.625V441.013H656.604V442.678ZM647.703 441.458H645.625V438.28H647.703V441.458ZM643.758 434.755C645.72 434.739 647.444 434.704 648.932 434.65C650.419 434.591 651.848 434.475 653.217 434.303L653.322 435.782C651.899 436.019 650.409 436.181 648.851 436.267C647.299 436.348 645.682 436.386 644 436.38L643.758 434.755ZM654.68 438.175H651.398V436.769H654.68V438.175ZM648.544 428.724C649.25 428.724 649.883 428.835 650.444 429.056C651.004 429.277 651.441 429.589 651.753 429.994C652.066 430.392 652.222 430.848 652.222 431.36C652.222 431.883 652.066 432.338 651.753 432.726C651.441 433.114 651.004 433.419 650.444 433.64C649.889 433.855 649.255 433.963 648.544 433.963C647.822 433.963 647.18 433.855 646.62 433.64C646.065 433.419 645.631 433.114 645.318 432.726C645.005 432.338 644.849 431.883 644.849 431.36C644.849 430.848 645.005 430.39 645.318 429.986C645.631 429.581 646.067 429.271 646.628 429.056C647.188 428.835 647.827 428.724 648.544 428.724ZM648.544 430.236C648.193 430.236 647.889 430.279 647.63 430.366C647.372 430.452 647.167 430.581 647.016 430.754C646.87 430.921 646.8 431.123 646.806 431.36C646.8 431.597 646.87 431.799 647.016 431.966C647.167 432.133 647.372 432.26 647.63 432.346C647.889 432.432 648.193 432.476 648.544 432.476C648.883 432.476 649.18 432.432 649.433 432.346C649.692 432.26 649.894 432.133 650.039 431.966C650.185 431.799 650.258 431.597 650.258 431.36C650.258 431.128 650.185 430.926 650.039 430.754C649.894 430.581 649.692 430.452 649.433 430.366C649.18 430.279 648.883 430.236 648.544 430.236Z" fill="#615D64"/>
<path d="M241.717 400.6L657.718 400.6" stroke="#D0D0D0" stroke-width="0.551908" stroke-linecap="round"/>
<path d="M328.641 309.539L572.86 309.539" stroke="#D0D0D0" stroke-width="0.413931" stroke-linecap="round" stroke-dasharray="2.9 2.9"/>
<path d="M328.641 367.488L572.86 367.488" stroke="#D0D0D0" stroke-width="0.413931" stroke-linecap="round" stroke-dasharray="2.9 2.9"/>
<path d="M243.781 275.391L657.713 275.391" stroke="#525252" stroke-width="0.827863" stroke-linecap="round"/>
<rect y="157.5" width="900" height="346.5" rx="27" fill="url(#paint0_linear_1993_5257)" fill-opacity="0.5"/>
</g>
<defs>
<filter id="filter0_d_1993_5257" x="183.129" y="178.514" width="533.172" height="338.625" filterUnits="userSpaceOnUse" color-interpolation-filters="sRGB">
<feFlood flood-opacity="0" result="BackgroundImageFix"/>
<feColorMatrix in="SourceAlpha" type="matrix" values="0 0 0 0 0 0 0 0 0 0 0 0 0 0 0 0 0 0 127 0" result="hardAlpha"/>
<feOffset dy="4.13931"/>
<feGaussianBlur stdDeviation="16.875"/>
<feComposite in2="hardAlpha" operator="out"/>
<feColorMatrix type="matrix" values="0 0 0 0 0 0 0 0 0 0 0 0 0 0 0 0 0 0 0.08 0"/>
<feBlend mode="normal" in2="BackgroundImageFix" result="effect1_dropShadow_1993_5257"/>
<feBlend mode="normal" in="SourceGraphic" in2="effect1_dropShadow_1993_5257" result="shape"/>
</filter>
<linearGradient id="paint0_linear_1993_5257" x1="267.75" y1="504" x2="267.75" y2="157.5" gradientUnits="userSpaceOnUse">
<stop stop-color="#E9E3F6"/>
<stop offset="1" stop-color="#E9E3F6" stop-opacity="0"/>
</linearGradient>
</defs>
</svg>
