<svg width="306" height="127" viewBox="0 0 306 127" fill="none" xmlns="http://www.w3.org/2000/svg">
<g filter="url(#filter0_d_2025_5505)">
<rect x="18" y="14.333" width="269.333" height="90.6667" rx="45.3333" fill="white"/>
</g>
<path d="M34.6287 33.8889H45.2532V23.0676H39.5474C39.5474 19.4278 40.4328 13.722 45.1548 13.722V9C43.3841 9 41.6133 9.49187 39.9409 10.3773C37.2848 12.0496 34.7271 15.5911 34.6287 23.0676V33.8889ZM18.8887 33.8889H29.5132V23.0676H23.8074C23.8074 19.4278 24.6928 13.722 29.4148 13.722V9C27.6441 9 25.8733 9.49187 24.2009 10.3773C21.5448 12.0496 18.987 15.5911 18.8887 23.0676V33.8889Z" fill="#7A7CEA"/>
<path d="M267.737 85.4441L257.112 85.4441L257.112 96.2654L262.818 96.2654C262.818 99.9053 261.932 105.611 257.21 105.611L257.21 110.333C258.981 110.333 260.752 109.841 262.424 108.956C265.08 107.283 267.638 103.742 267.737 96.2654L267.737 85.4441ZM283.477 85.4441L272.852 85.4441L272.852 96.2654L278.558 96.2654C278.558 99.9053 277.672 105.611 272.95 105.611L272.95 110.333C274.721 110.333 276.492 109.841 278.164 108.956C280.82 107.283 283.378 103.742 283.477 96.2654L283.477 85.4441Z" fill="#7A7CEA"/>
<defs>
<filter id="filter0_d_2025_5505" x="0.222221" y="0.110785" width="304.89" height="126.223" filterUnits="userSpaceOnUse" color-interpolation-filters="sRGB">
<feFlood flood-opacity="0" result="BackgroundImageFix"/>
<feColorMatrix in="SourceAlpha" type="matrix" values="0 0 0 0 0 0 0 0 0 0 0 0 0 0 0 0 0 0 127 0" result="hardAlpha"/>
<feOffset dy="3.55556"/>
<feGaussianBlur stdDeviation="8.88889"/>
<feComposite in2="hardAlpha" operator="out"/>
<feColorMatrix type="matrix" values="0 0 0 0 0 0 0 0 0 0 0 0 0 0 0 0 0 0 0.08 0"/>
<feBlend mode="normal" in2="BackgroundImageFix" result="effect1_dropShadow_2025_5505"/>
<feBlend mode="normal" in="SourceGraphic" in2="effect1_dropShadow_2025_5505" result="shape"/>
</filter>
</defs>
</svg>
