<svg width="306" height="131" viewBox="0 0 306 131" fill="none" xmlns="http://www.w3.org/2000/svg">
<g filter="url(#filter0_d_2086_8912)">
<rect width="269.333" height="90.6667" rx="45.3333" transform="matrix(-1 0 0 1 287.336 18.2227)" fill="white"/>
<rect x="-0.8" y="0.8" width="267.733" height="89.0667" rx="44.5333" transform="matrix(-1 0 0 1 285.736 18.2227)" stroke="url(#paint0_linear_2086_8912)" stroke-width="1.6"/>
</g>
<path d="M77.0488 19.1L86.5751 2.6C87.6528 0.733335 90.3471 0.733331 91.4249 2.6L100.951 19.1C102.029 20.9667 100.682 23.3 98.5263 23.3H79.4737C77.3183 23.3 75.9711 20.9667 77.0488 19.1Z" fill="white" stroke="#777EEF" stroke-width="1.6"/>
<rect width="29" height="8" transform="matrix(-1 0 0 1 104 19.7998)" fill="white"/>
<defs>
<filter id="filter0_d_2086_8912" x="0.224174" y="4.00043" width="304.89" height="126.223" filterUnits="userSpaceOnUse" color-interpolation-filters="sRGB">
<feFlood flood-opacity="0" result="BackgroundImageFix"/>
<feColorMatrix in="SourceAlpha" type="matrix" values="0 0 0 0 0 0 0 0 0 0 0 0 0 0 0 0 0 0 127 0" result="hardAlpha"/>
<feOffset dy="3.55556"/>
<feGaussianBlur stdDeviation="8.88889"/>
<feComposite in2="hardAlpha" operator="out"/>
<feColorMatrix type="matrix" values="0 0 0 0 0 0 0 0 0 0 0 0 0 0 0 0 0 0 0.08 0"/>
<feBlend mode="normal" in2="BackgroundImageFix" result="effect1_dropShadow_2086_8912"/>
<feBlend mode="normal" in="SourceGraphic" in2="effect1_dropShadow_2086_8912" result="shape"/>
</filter>
<linearGradient id="paint0_linear_2086_8912" x1="145.834" y1="20.2773" x2="48.334" y2="208.777" gradientUnits="userSpaceOnUse">
<stop stop-color="#727EF2"/>
<stop offset="1" stop-color="#727EF2" stop-opacity="0"/>
</linearGradient>
</defs>
</svg>
