<svg width="65" height="12" viewBox="0 0 65 12" fill="none" xmlns="http://www.w3.org/2000/svg">
<path d="M5.31644 11.849C7.89244 11.849 9.66844 10.505 9.66844 8.329C9.66844 6.521 8.53244 5.433 5.70044 4.969C3.90844 4.665 3.15644 4.265 3.15644 3.401C3.15644 2.473 4.13244 1.865 5.44444 1.865C6.40444 1.865 7.46044 2.137 8.27644 2.761L9.22044 1.401C8.03644 0.521 6.82044 0.200999 5.39644 0.200999C3.06044 0.200999 1.28444 1.513 1.28444 3.497C1.28444 5.241 2.56444 6.217 5.22044 6.585C7.12444 6.857 7.79644 7.433 7.79644 8.361C7.79644 9.481 6.74044 10.137 5.31644 10.137C4.02044 10.137 2.80444 9.657 1.86044 8.953L0.964438 10.377C2.02044 11.257 3.57244 11.849 5.31644 11.849ZM19.6331 0.424999H10.5611V2.089H14.1611V11.625H16.0331V2.089H19.6331V0.424999ZM23.2424 9.913V6.777H28.8584V5.113H23.2424V2.105H29.1304V0.424999H21.3864V11.625H29.2264V9.913H23.2424ZM36.4041 0.424999H31.6521V11.625H33.5081V8.233H36.4041C39.1561 8.233 40.4201 6.329 40.4201 4.297C40.4201 2.313 39.1561 0.424999 36.4041 0.424999ZM36.2921 6.537H33.5081V2.121H36.2921C37.9081 2.121 38.5321 3.225 38.5321 4.361C38.5321 5.465 37.9081 6.537 36.2921 6.537ZM49.9207 11.849C52.8807 11.849 54.7047 9.609 54.7047 5.993C54.7047 2.377 52.9607 0.200999 50.0487 0.200999C47.0567 0.200999 45.2487 2.425 45.2487 6.057C45.2487 9.689 46.9927 11.849 49.9207 11.849ZM49.9847 10.121C48.1447 10.121 47.1367 8.665 47.1367 5.993C47.1367 3.385 48.1447 1.929 49.9847 1.929C51.7927 1.929 52.8007 3.417 52.8007 6.057C52.8007 8.665 51.8087 10.121 49.9847 10.121ZM59.8553 11.785C62.4793 11.785 64.2713 10.409 64.2713 8.393C64.2713 7.129 63.4873 6.169 62.1753 5.833V5.801C63.2793 5.417 64.0153 4.409 64.0153 3.241C64.0153 1.481 62.3353 0.264999 59.9353 0.264999C58.6713 0.264999 57.2793 0.712999 56.1913 1.481L57.0553 2.905C58.1273 2.233 58.9433 1.977 59.8873 1.977C61.3273 1.977 62.1753 2.489 62.1753 3.417C62.1753 4.393 61.2793 5.001 59.8553 5.001H58.0793V6.665H59.8713C61.4393 6.665 62.3833 7.273 62.3833 8.281C62.3833 9.385 61.4073 10.057 59.7593 10.057C58.7033 10.057 57.9033 9.801 56.8153 9.129L55.9353 10.585C57.0553 11.353 58.4953 11.785 59.8553 11.785Z" fill="#7A7CEA"/>
<path d="M5.70044 4.969L5.66281 5.19083L5.66406 5.19104L5.70044 4.969ZM8.27644 2.761L8.13976 2.93973L8.32692 3.08285L8.46127 2.8893L8.27644 2.761ZM9.22044 1.401L9.40527 1.5293L9.52948 1.35035L9.35466 1.22042L9.22044 1.401ZM5.22044 6.585L5.25226 6.36226L5.25132 6.36213L5.22044 6.585ZM1.86044 8.953L1.99495 8.77263L1.79971 8.62703L1.67 8.83317L1.86044 8.953ZM0.964438 10.377L0.773999 10.2572L0.669149 10.4238L0.820396 10.5499L0.964438 10.377ZM5.31644 12.074C6.64123 12.074 7.7828 11.7285 8.59832 11.0812C9.41902 10.4298 9.89344 9.48446 9.89344 8.329H9.44344C9.44344 9.34954 9.02985 10.1642 8.31856 10.7288C7.60208 11.2975 6.56765 11.624 5.31644 11.624V12.074ZM9.89344 8.329C9.89344 7.37153 9.58939 6.58116 8.89426 5.97537C8.21027 5.3793 7.16991 4.98176 5.73682 4.74696L5.66406 5.19104C7.06297 5.42024 8.0066 5.7987 8.59861 6.31463C9.17948 6.82084 9.44344 7.47847 9.44344 8.329H9.89344ZM5.73807 4.74717C4.84444 4.59557 4.24493 4.42462 3.87179 4.20182C3.68921 4.0928 3.56971 3.9764 3.49474 3.85177C3.42051 3.72836 3.38144 3.58283 3.38144 3.401H2.93144C2.93144 3.65117 2.98637 3.87964 3.10913 4.08373C3.23116 4.2866 3.41167 4.4512 3.64109 4.58818C4.09194 4.85738 4.76444 5.03843 5.66281 5.19083L5.73807 4.74717ZM3.38144 3.401C3.38144 3.02705 3.57436 2.70795 3.93197 2.47306C4.29417 2.23514 4.82 2.09 5.44444 2.09V1.64C4.75688 1.64 4.13871 1.79886 3.68491 2.09694C3.22651 2.39805 2.93144 2.84695 2.93144 3.401H3.38144ZM5.44444 2.09C6.36655 2.09 7.37126 2.35205 8.13976 2.93973L8.41311 2.58227C7.54961 1.92195 6.44233 1.64 5.44444 1.64V2.09ZM8.46127 2.8893L9.40527 1.5293L9.0356 1.2727L8.0916 2.6327L8.46127 2.8893ZM9.35466 1.22042C8.12536 0.30675 6.86002 -0.0240006 5.39644 -0.0240006V0.425999C6.78085 0.425999 7.94752 0.73525 9.08622 1.58158L9.35466 1.22042ZM5.39644 -0.0240006C2.99065 -0.0240006 1.05944 1.3405 1.05944 3.497H1.50944C1.50944 1.6855 3.13022 0.425999 5.39644 0.425999V-0.0240006ZM1.05944 3.497C1.05944 4.43368 1.40784 5.18105 2.11815 5.73449C2.81572 6.27799 3.84561 6.62166 5.18956 6.80787L5.25132 6.36213C3.93926 6.18034 3.00115 5.85201 2.39472 5.37951C1.80104 4.91694 1.50944 4.30432 1.50944 3.497H1.05944ZM5.18862 6.80774C6.1297 6.94218 6.72948 7.14783 7.09047 7.40924C7.43393 7.65795 7.57144 7.96392 7.57144 8.361H8.02144C8.02144 7.83008 7.82295 7.38405 7.3544 7.04476C6.9034 6.71817 6.21517 6.49982 5.25226 6.36226L5.18862 6.80774ZM7.57144 8.361C7.57144 8.83979 7.35002 9.21738 6.96293 9.48362C6.56883 9.75467 5.99739 9.912 5.31644 9.912V10.362C6.05948 10.362 6.72804 10.1913 7.21794 9.85439C7.71485 9.51262 8.02144 9.00221 8.02144 8.361H7.57144ZM5.31644 9.912C4.07557 9.912 2.90578 9.4519 1.99495 8.77263L1.72593 9.13337C2.70309 9.8621 3.96531 10.362 5.31644 10.362V9.912ZM1.67 8.83317L0.773999 10.2572L1.15488 10.4968L2.05088 9.07283L1.67 8.83317ZM0.820396 10.5499C1.9195 11.4658 3.52338 12.074 5.31644 12.074V11.624C3.62149 11.624 2.12137 11.0482 1.10848 10.2041L0.820396 10.5499ZM19.6331 0.424999H19.8581V0.199999H19.6331V0.424999ZM10.5611 0.424999V0.199999H10.3361V0.424999H10.5611ZM10.5611 2.089H10.3361V2.314H10.5611V2.089ZM14.1611 2.089H14.3861V1.864H14.1611V2.089ZM14.1611 11.625H13.9361V11.85H14.1611V11.625ZM16.0331 11.625V11.85H16.2581V11.625H16.0331ZM16.0331 2.089V1.864H15.8081V2.089H16.0331ZM19.6331 2.089V2.314H19.8581V2.089H19.6331ZM19.6331 0.199999H10.5611V0.65H19.6331V0.199999ZM10.3361 0.424999V2.089H10.7861V0.424999H10.3361ZM10.5611 2.314H14.1611V1.864H10.5611V2.314ZM13.9361 2.089V11.625H14.3861V2.089H13.9361ZM14.1611 11.85H16.0331V11.4H14.1611V11.85ZM16.2581 11.625V2.089H15.8081V11.625H16.2581ZM16.0331 2.314H19.6331V1.864H16.0331V2.314ZM19.8581 2.089V0.424999H19.4081V2.089H19.8581ZM23.2424 9.913H23.0174V10.138H23.2424V9.913ZM23.2424 6.777V6.552H23.0174V6.777H23.2424ZM28.8584 6.777V7.002H29.0834V6.777H28.8584ZM28.8584 5.113H29.0834V4.888H28.8584V5.113ZM23.2424 5.113H23.0174V5.338H23.2424V5.113ZM23.2424 2.105V1.88H23.0174V2.105H23.2424ZM29.1304 2.105V2.33H29.3554V2.105H29.1304ZM29.1304 0.424999H29.3554V0.199999H29.1304V0.424999ZM21.3864 0.424999V0.199999H21.1614V0.424999H21.3864ZM21.3864 11.625H21.1614V11.85H21.3864V11.625ZM29.2264 11.625V11.85H29.4514V11.625H29.2264ZM29.2264 9.913H29.4514V9.688H29.2264V9.913ZM23.4674 9.913V6.777H23.0174V9.913H23.4674ZM23.2424 7.002H28.8584V6.552H23.2424V7.002ZM29.0834 6.777V5.113H28.6334V6.777H29.0834ZM28.8584 4.888H23.2424V5.338H28.8584V4.888ZM23.4674 5.113V2.105H23.0174V5.113H23.4674ZM23.2424 2.33H29.1304V1.88H23.2424V2.33ZM29.3554 2.105V0.424999H28.9054V2.105H29.3554ZM29.1304 0.199999H21.3864V0.65H29.1304V0.199999ZM21.1614 0.424999V11.625H21.6114V0.424999H21.1614ZM21.3864 11.85H29.2264V11.4H21.3864V11.85ZM29.4514 11.625V9.913H29.0014V11.625H29.4514ZM29.2264 9.688H23.2424V10.138H29.2264V9.688ZM31.6521 0.424999V0.199999H31.4271V0.424999H31.6521ZM31.6521 11.625H31.4271V11.85H31.6521V11.625ZM33.5081 11.625V11.85H33.7331V11.625H33.5081ZM33.5081 8.233V8.008H33.2831V8.233H33.5081ZM33.5081 6.537H33.2831V6.762H33.5081V6.537ZM33.5081 2.121V1.896H33.2831V2.121H33.5081ZM36.4041 0.199999H31.6521V0.65H36.4041V0.199999ZM31.4271 0.424999V11.625H31.8771V0.424999H31.4271ZM31.6521 11.85H33.5081V11.4H31.6521V11.85ZM33.7331 11.625V8.233H33.2831V11.625H33.7331ZM33.5081 8.458H36.4041V8.008H33.5081V8.458ZM36.4041 8.458C37.8357 8.458 38.9032 7.96069 39.611 7.1779C40.3151 6.39905 40.6451 5.35778 40.6451 4.297H40.1951C40.1951 5.26822 39.893 6.19494 39.2772 6.8761C38.6649 7.55331 37.7244 8.008 36.4041 8.008V8.458ZM40.6451 4.297C40.6451 3.25894 40.3144 2.23343 39.6099 1.46496C38.9021 0.692815 37.835 0.199999 36.4041 0.199999V0.65C37.7251 0.65 38.666 1.10118 39.2782 1.76904C39.8938 2.44057 40.1951 3.35106 40.1951 4.297H40.6451ZM36.2921 6.312H33.5081V6.762H36.2921V6.312ZM33.7331 6.537V2.121H33.2831V6.537H33.7331ZM33.5081 2.346H36.2921V1.896H33.5081V2.346ZM36.2921 2.346C37.0446 2.346 37.5382 2.60055 37.8472 2.96136C38.1613 3.32809 38.3071 3.83102 38.3071 4.361H38.7571C38.7571 3.75498 38.5909 3.13791 38.189 2.66864C37.782 2.19345 37.1556 1.896 36.2921 1.896V2.346ZM38.3071 4.361C38.3071 4.87344 38.1621 5.35944 37.8493 5.71419C37.541 6.06386 37.0468 6.312 36.2921 6.312V6.762C37.1533 6.762 37.7792 6.47414 38.1868 6.01181C38.59 5.55456 38.7571 4.95256 38.7571 4.361H38.3071ZM49.9207 12.074C51.4625 12.074 52.7247 11.4879 53.597 10.4193C54.4649 9.35593 54.9297 7.8363 54.9297 5.993H54.4797C54.4797 7.7657 54.0325 9.17407 53.2484 10.1347C52.4686 11.0901 51.3389 11.624 49.9207 11.624V12.074ZM54.9297 5.993C54.9297 4.15188 54.486 2.6482 53.6441 1.6001C52.7973 0.545763 51.566 -0.0240006 50.0487 -0.0240006V0.425999C51.4434 0.425999 52.5401 0.944237 53.2933 1.8819C54.0514 2.8258 54.4797 4.21812 54.4797 5.993H54.9297ZM50.0487 -0.0240006C48.4921 -0.0240006 47.2254 0.557201 46.3525 1.62456C45.4842 2.68636 45.0237 4.20636 45.0237 6.057H45.4737C45.4737 4.27563 45.9172 2.86764 46.7009 1.90944C47.4799 0.956798 48.6133 0.425999 50.0487 0.425999V-0.0240006ZM45.0237 6.057C45.0237 7.9059 45.4673 9.40991 46.3116 10.4563C47.1609 11.5089 48.3963 12.074 49.9207 12.074V11.624C48.517 11.624 47.4165 11.1091 46.6618 10.1737C45.9021 9.23209 45.4737 7.8401 45.4737 6.057H45.0237ZM49.9847 9.896C49.1331 9.896 48.4928 9.56395 48.0558 8.93115C47.6103 8.28599 47.3617 7.30627 47.3617 5.993H46.9117C46.9117 7.35173 47.167 8.43601 47.6855 9.18685C48.2126 9.95005 48.9962 10.346 49.9847 10.346V9.896ZM47.3617 5.993C47.3617 4.71266 47.61 3.74911 48.0551 3.11185C48.4921 2.48633 49.1329 2.154 49.9847 2.154V1.704C48.9965 1.704 48.2133 2.09967 47.6862 2.85415C47.1674 3.59689 46.9117 4.66533 46.9117 5.993H47.3617ZM49.9847 2.154C50.8171 2.154 51.4502 2.49149 51.8847 3.12964C52.3273 3.77962 52.5757 4.76037 52.5757 6.057H53.0257C53.0257 4.71363 52.7701 3.63038 52.2567 2.87636C51.7352 2.11051 50.9603 1.704 49.9847 1.704V2.154ZM52.5757 6.057C52.5757 7.33792 52.3312 8.30186 51.8915 8.93924C51.4602 9.56447 50.8276 9.896 49.9847 9.896V10.346C50.9658 10.346 51.7412 9.94953 52.2619 9.19477C52.7742 8.45214 53.0257 7.38408 53.0257 6.057H52.5757ZM62.1753 5.833H61.9503V6.00764L62.1195 6.05097L62.1753 5.833ZM62.1753 5.801L62.1014 5.58849L61.9503 5.64104V5.801H62.1753ZM56.1913 1.481L56.0616 1.29718L55.8901 1.41824L55.999 1.59771L56.1913 1.481ZM57.0553 2.905L56.8629 3.02171L56.9814 3.2169L57.1748 3.09564L57.0553 2.905ZM58.0793 5.001V4.776H57.8543V5.001H58.0793ZM58.0793 6.665H57.8543V6.89H58.0793V6.665ZM56.8153 9.129L56.9335 8.93757L56.7403 8.81819L56.6227 9.01262L56.8153 9.129ZM55.9353 10.585L55.7428 10.4686L55.6329 10.6504L55.8081 10.7706L55.9353 10.585ZM59.8553 12.01C61.2045 12.01 62.3603 11.6564 63.1844 11.0234C64.0129 10.3871 64.4963 9.47457 64.4963 8.393H64.0463C64.0463 9.32743 63.6338 10.1109 62.9103 10.6666C62.1824 11.2256 61.1301 11.56 59.8553 11.56V12.01ZM64.4963 8.393C64.4963 7.01664 63.6331 5.97407 62.2311 5.61503L62.1195 6.05097C63.3415 6.36393 64.0463 7.24136 64.0463 8.393H64.4963ZM62.4003 5.833V5.801H61.9503V5.833H62.4003ZM62.2492 6.01351C63.4411 5.59893 64.2403 4.50744 64.2403 3.241H63.7903C63.7903 4.31056 63.1175 5.23507 62.1014 5.58849L62.2492 6.01351ZM64.2403 3.241C64.2403 2.2812 63.7793 1.47259 63.0077 0.911077C62.2405 0.352748 61.1709 0.0399995 59.9353 0.0399995V0.489999C61.0998 0.489999 62.0701 0.785252 62.7429 1.27492C63.4114 1.76141 63.7903 2.4408 63.7903 3.241H64.2403ZM59.9353 0.0399995C58.623 0.0399995 57.186 0.503482 56.0616 1.29718L56.3211 1.66482C57.3727 0.922517 58.7196 0.489999 59.9353 0.489999V0.0399995ZM55.999 1.59771L56.8629 3.02171L57.2477 2.78829L56.3837 1.36429L55.999 1.59771ZM57.1748 3.09564C58.2205 2.44015 58.9955 2.202 59.8873 2.202V1.752C58.8911 1.752 58.0341 2.02585 56.9358 2.71436L57.1748 3.09564ZM59.8873 2.202C60.5861 2.202 61.1104 2.32711 61.4524 2.54002C61.782 2.74517 61.9503 3.03484 61.9503 3.417H62.4003C62.4003 2.87116 62.1446 2.44083 61.6902 2.15798C61.2483 1.88289 60.6286 1.752 59.8873 1.752V2.202ZM61.9503 3.417C61.9503 3.82582 61.7672 4.15423 61.4226 4.38908C61.0699 4.62946 60.5392 4.776 59.8553 4.776V5.226C60.5955 5.226 61.2247 5.06854 61.676 4.76092C62.1355 4.44777 62.4003 3.98418 62.4003 3.417H61.9503ZM59.8553 4.776H58.0793V5.226H59.8553V4.776ZM57.8543 5.001V6.665H58.3043V5.001H57.8543ZM58.0793 6.89H59.8713V6.44H58.0793V6.89ZM59.8713 6.89C60.6308 6.89 61.2109 7.03796 61.5936 7.28421C61.9663 7.52408 62.1583 7.8594 62.1583 8.281H62.6083C62.6083 7.6946 62.3283 7.22192 61.8371 6.90579C61.3557 6.59604 60.6798 6.44 59.8713 6.44V6.89ZM62.1583 8.281C62.1583 8.75642 61.9529 9.13165 61.5628 9.39694C61.1632 9.6687 60.5571 9.832 59.7593 9.832V10.282C60.6095 10.282 61.3155 10.1093 61.8158 9.76906C62.3257 9.42235 62.6083 8.90958 62.6083 8.281H62.1583ZM59.7593 9.832C58.7538 9.832 57.9943 9.59273 56.9335 8.93757L56.6971 9.32043C57.8123 10.0093 58.6528 10.282 59.7593 10.282V9.832ZM56.6227 9.01262L55.7428 10.4686L56.1279 10.7014L57.0079 9.24538L56.6227 9.01262ZM55.8081 10.7706C56.9668 11.5651 58.4515 12.01 59.8553 12.01V11.56C58.5392 11.56 57.1438 11.1409 56.0626 10.3994L55.8081 10.7706Z" fill="#7A7CEA"/>
</svg>
