<svg width="65" height="12" viewBox="0 0 65 12" fill="none" xmlns="http://www.w3.org/2000/svg">
<path d="M5.30081 11.849C7.87681 11.849 9.65281 10.505 9.65281 8.329C9.65281 6.521 8.51681 5.433 5.68481 4.969C3.89281 4.665 3.14081 4.265 3.14081 3.401C3.14081 2.473 4.11681 1.865 5.42881 1.865C6.38881 1.865 7.44481 2.137 8.26081 2.761L9.20481 1.401C8.02081 0.521 6.80481 0.200999 5.38081 0.200999C3.04481 0.200999 1.26881 1.513 1.26881 3.497C1.26881 5.241 2.54881 6.217 5.20481 6.585C7.10881 6.857 7.78081 7.433 7.78081 8.361C7.78081 9.481 6.72481 10.137 5.30081 10.137C4.00481 10.137 2.78881 9.657 1.84481 8.953L0.948813 10.377C2.00481 11.257 3.55681 11.849 5.30081 11.849ZM19.6174 0.424999H10.5454V2.089H14.1454V11.625H16.0174V2.089H19.6174V0.424999ZM23.2268 9.913V6.777H28.8428V5.113H23.2268V2.105H29.1148V0.424999H21.3708V11.625H29.2108V9.913H23.2268ZM36.3884 0.424999H31.6364V11.625H33.4924V8.233H36.3884C39.1404 8.233 40.4044 6.329 40.4044 4.297C40.4044 2.313 39.1404 0.424999 36.3884 0.424999ZM36.2764 6.537H33.4924V2.121H36.2764C37.8924 2.121 38.5164 3.225 38.5164 4.361C38.5164 5.465 37.8924 6.537 36.2764 6.537ZM49.9051 11.849C52.8651 11.849 54.6891 9.609 54.6891 5.993C54.6891 2.377 52.9451 0.200999 50.0331 0.200999C47.0411 0.200999 45.2331 2.425 45.2331 6.057C45.2331 9.689 46.9771 11.849 49.9051 11.849ZM49.9691 10.121C48.1291 10.121 47.1211 8.665 47.1211 5.993C47.1211 3.385 48.1291 1.929 49.9691 1.929C51.7771 1.929 52.7851 3.417 52.7851 6.057C52.7851 8.665 51.7931 10.121 49.9691 10.121ZM61.0077 7.113C63.1997 6.169 64.3037 4.873 64.3037 3.337C64.3037 1.545 62.7037 0.249 60.4637 0.249C59.0397 0.249 57.6157 0.825 56.4477 1.833L57.5517 3.129C58.4477 2.345 59.3917 1.977 60.3837 1.977C61.6157 1.977 62.4157 2.521 62.4157 3.401C62.4157 4.281 61.6317 5.017 59.9517 5.689C56.9597 6.889 56.1597 8.169 56.1597 11.625H64.2717V9.865H58.1277C58.2717 8.537 58.9117 8.009 61.0077 7.113Z" fill="#7A7CEA"/>
<path d="M5.68481 4.969L5.64718 5.19083L5.64843 5.19104L5.68481 4.969ZM8.26081 2.761L8.12414 2.93973L8.3113 3.08285L8.44565 2.8893L8.26081 2.761ZM9.20481 1.401L9.38965 1.5293L9.51386 1.35035L9.33903 1.22042L9.20481 1.401ZM5.20481 6.585L5.23663 6.36226L5.23569 6.36213L5.20481 6.585ZM1.84481 8.953L1.97932 8.77263L1.78408 8.62703L1.65437 8.83317L1.84481 8.953ZM0.948813 10.377L0.758374 10.2572L0.653524 10.4238L0.804771 10.5499L0.948813 10.377ZM5.30081 12.074C6.6256 12.074 7.76717 11.7285 8.5827 11.0812C9.4034 10.4298 9.87781 9.48446 9.87781 8.329H9.42781C9.42781 9.34954 9.01423 10.1642 8.30293 10.7288C7.58645 11.2975 6.55202 11.624 5.30081 11.624V12.074ZM9.87781 8.329C9.87781 7.37153 9.57377 6.58116 8.87864 5.97537C8.19465 5.3793 7.15428 4.98176 5.72119 4.74696L5.64843 5.19104C7.04734 5.42024 7.99098 5.7987 8.58299 6.31463C9.16386 6.82084 9.42781 7.47847 9.42781 8.329H9.87781ZM5.72244 4.74717C4.82881 4.59557 4.22931 4.42462 3.85616 4.20182C3.67358 4.0928 3.55409 3.9764 3.47912 3.85177C3.40488 3.72836 3.36581 3.58283 3.36581 3.401H2.91581C2.91581 3.65117 2.97074 3.87964 3.09351 4.08373C3.21554 4.2866 3.39604 4.4512 3.62547 4.58818C4.07632 4.85738 4.74881 5.03843 5.64718 5.19083L5.72244 4.74717ZM3.36581 3.401C3.36581 3.02705 3.55874 2.70795 3.91634 2.47306C4.27854 2.23514 4.80437 2.09 5.42881 2.09V1.64C4.74125 1.64 4.12308 1.79886 3.66928 2.09694C3.21089 2.39805 2.91581 2.84695 2.91581 3.401H3.36581ZM5.42881 2.09C6.35092 2.09 7.35564 2.35205 8.12414 2.93973L8.39749 2.58227C7.53399 1.92195 6.4267 1.64 5.42881 1.64V2.09ZM8.44565 2.8893L9.38965 1.5293L9.01998 1.2727L8.07598 2.6327L8.44565 2.8893ZM9.33903 1.22042C8.10974 0.30675 6.8444 -0.0240006 5.38081 -0.0240006V0.425999C6.76523 0.425999 7.93189 0.73525 9.07059 1.58158L9.33903 1.22042ZM5.38081 -0.0240006C2.97503 -0.0240006 1.04381 1.3405 1.04381 3.497H1.49381C1.49381 1.6855 3.1146 0.425999 5.38081 0.425999V-0.0240006ZM1.04381 3.497C1.04381 4.43368 1.39221 5.18105 2.10253 5.73449C2.8001 6.27799 3.82999 6.62166 5.17393 6.80787L5.23569 6.36213C3.92364 6.18034 2.98553 5.85201 2.3791 5.37951C1.78541 4.91694 1.49381 4.30432 1.49381 3.497H1.04381ZM5.17299 6.80774C6.11408 6.94218 6.71385 7.14783 7.07485 7.40924C7.4183 7.65795 7.55581 7.96392 7.55581 8.361H8.00581C8.00581 7.83008 7.80732 7.38405 7.33878 7.04476C6.88777 6.71817 6.19955 6.49982 5.23663 6.36226L5.17299 6.80774ZM7.55581 8.361C7.55581 8.83979 7.3344 9.21738 6.94731 9.48362C6.55321 9.75467 5.98177 9.912 5.30081 9.912V10.362C6.04386 10.362 6.71242 10.1913 7.20232 9.85439C7.69923 9.51262 8.00581 9.00221 8.00581 8.361H7.55581ZM5.30081 9.912C4.05994 9.912 2.89016 9.4519 1.97932 8.77263L1.7103 9.13337C2.68747 9.8621 3.94969 10.362 5.30081 10.362V9.912ZM1.65437 8.83317L0.758374 10.2572L1.13925 10.4968L2.03525 9.07283L1.65437 8.83317ZM0.804771 10.5499C1.90388 11.4658 3.50776 12.074 5.30081 12.074V11.624C3.60587 11.624 2.10575 11.0482 1.09285 10.2041L0.804771 10.5499ZM19.6174 0.424999H19.8424V0.199999H19.6174V0.424999ZM10.5454 0.424999V0.199999H10.3204V0.424999H10.5454ZM10.5454 2.089H10.3204V2.314H10.5454V2.089ZM14.1454 2.089H14.3704V1.864H14.1454V2.089ZM14.1454 11.625H13.9204V11.85H14.1454V11.625ZM16.0174 11.625V11.85H16.2424V11.625H16.0174ZM16.0174 2.089V1.864H15.7924V2.089H16.0174ZM19.6174 2.089V2.314H19.8424V2.089H19.6174ZM19.6174 0.199999H10.5454V0.65H19.6174V0.199999ZM10.3204 0.424999V2.089H10.7704V0.424999H10.3204ZM10.5454 2.314H14.1454V1.864H10.5454V2.314ZM13.9204 2.089V11.625H14.3704V2.089H13.9204ZM14.1454 11.85H16.0174V11.4H14.1454V11.85ZM16.2424 11.625V2.089H15.7924V11.625H16.2424ZM16.0174 2.314H19.6174V1.864H16.0174V2.314ZM19.8424 2.089V0.424999H19.3924V2.089H19.8424ZM23.2268 9.913H23.0018V10.138H23.2268V9.913ZM23.2268 6.777V6.552H23.0018V6.777H23.2268ZM28.8428 6.777V7.002H29.0678V6.777H28.8428ZM28.8428 5.113H29.0678V4.888H28.8428V5.113ZM23.2268 5.113H23.0018V5.338H23.2268V5.113ZM23.2268 2.105V1.88H23.0018V2.105H23.2268ZM29.1148 2.105V2.33H29.3398V2.105H29.1148ZM29.1148 0.424999H29.3398V0.199999H29.1148V0.424999ZM21.3708 0.424999V0.199999H21.1458V0.424999H21.3708ZM21.3708 11.625H21.1458V11.85H21.3708V11.625ZM29.2108 11.625V11.85H29.4358V11.625H29.2108ZM29.2108 9.913H29.4358V9.688H29.2108V9.913ZM23.4518 9.913V6.777H23.0018V9.913H23.4518ZM23.2268 7.002H28.8428V6.552H23.2268V7.002ZM29.0678 6.777V5.113H28.6178V6.777H29.0678ZM28.8428 4.888H23.2268V5.338H28.8428V4.888ZM23.4518 5.113V2.105H23.0018V5.113H23.4518ZM23.2268 2.33H29.1148V1.88H23.2268V2.33ZM29.3398 2.105V0.424999H28.8898V2.105H29.3398ZM29.1148 0.199999H21.3708V0.65H29.1148V0.199999ZM21.1458 0.424999V11.625H21.5958V0.424999H21.1458ZM21.3708 11.85H29.2108V11.4H21.3708V11.85ZM29.4358 11.625V9.913H28.9858V11.625H29.4358ZM29.2108 9.688H23.2268V10.138H29.2108V9.688ZM31.6364 0.424999V0.199999H31.4114V0.424999H31.6364ZM31.6364 11.625H31.4114V11.85H31.6364V11.625ZM33.4924 11.625V11.85H33.7174V11.625H33.4924ZM33.4924 8.233V8.008H33.2674V8.233H33.4924ZM33.4924 6.537H33.2674V6.762H33.4924V6.537ZM33.4924 2.121V1.896H33.2674V2.121H33.4924ZM36.3884 0.199999H31.6364V0.65H36.3884V0.199999ZM31.4114 0.424999V11.625H31.8614V0.424999H31.4114ZM31.6364 11.85H33.4924V11.4H31.6364V11.85ZM33.7174 11.625V8.233H33.2674V11.625H33.7174ZM33.4924 8.458H36.3884V8.008H33.4924V8.458ZM36.3884 8.458C37.8201 8.458 38.8876 7.96069 39.5953 7.1779C40.2995 6.39905 40.6294 5.35778 40.6294 4.297H40.1794C40.1794 5.26822 39.8774 6.19494 39.2615 6.8761C38.6493 7.55331 37.7088 8.008 36.3884 8.008V8.458ZM40.6294 4.297C40.6294 3.25894 40.2987 2.23343 39.5943 1.46496C38.8865 0.692815 37.8194 0.199999 36.3884 0.199999V0.65C37.7095 0.65 38.6504 1.10118 39.2626 1.76904C39.8781 2.44057 40.1794 3.35106 40.1794 4.297H40.6294ZM36.2764 6.312H33.4924V6.762H36.2764V6.312ZM33.7174 6.537V2.121H33.2674V6.537H33.7174ZM33.4924 2.346H36.2764V1.896H33.4924V2.346ZM36.2764 2.346C37.0289 2.346 37.5225 2.60055 37.8315 2.96136C38.1456 3.32809 38.2914 3.83102 38.2914 4.361H38.7414C38.7414 3.75498 38.5752 3.13791 38.1733 2.66864C37.7663 2.19345 37.1399 1.896 36.2764 1.896V2.346ZM38.2914 4.361C38.2914 4.87344 38.1465 5.35944 37.8337 5.71419C37.5253 6.06386 37.0312 6.312 36.2764 6.312V6.762C37.1377 6.762 37.7635 6.47414 38.1712 6.01181C38.5744 5.55456 38.7414 4.95256 38.7414 4.361H38.2914ZM49.9051 12.074C51.4469 12.074 52.7091 11.4879 53.5814 10.4193C54.4493 9.35593 54.9141 7.8363 54.9141 5.993H54.4641C54.4641 7.7657 54.0168 9.17407 53.2328 10.1347C52.453 11.0901 51.3233 11.624 49.9051 11.624V12.074ZM54.9141 5.993C54.9141 4.15188 54.4703 2.6482 53.6285 1.6001C52.7816 0.545763 51.5503 -0.0240006 50.0331 -0.0240006V0.425999C51.4278 0.425999 52.5245 0.944237 53.2776 1.8819C54.0358 2.8258 54.4641 4.21812 54.4641 5.993H54.9141ZM50.0331 -0.0240006C48.4764 -0.0240006 47.2098 0.557201 46.3369 1.62456C45.4685 2.68636 45.0081 4.20636 45.0081 6.057H45.4581C45.4581 4.27563 45.9016 2.86764 46.6852 1.90944C47.4643 0.956798 48.5977 0.425999 50.0331 0.425999V-0.0240006ZM45.0081 6.057C45.0081 7.9059 45.4517 9.40991 46.296 10.4563C47.1453 11.5089 48.3807 12.074 49.9051 12.074V11.624C48.5014 11.624 47.4009 11.1091 46.6462 10.1737C45.8864 9.23209 45.4581 7.8401 45.4581 6.057H45.0081ZM49.9691 9.896C49.1175 9.896 48.4772 9.56395 48.0402 8.93115C47.5947 8.28599 47.3461 7.30627 47.3461 5.993H46.8961C46.8961 7.35173 47.1514 8.43601 47.6699 9.18685C48.1969 9.95005 48.9806 10.346 49.9691 10.346V9.896ZM47.3461 5.993C47.3461 4.71266 47.5944 3.74911 48.0395 3.11185C48.4765 2.48633 49.1173 2.154 49.9691 2.154V1.704C48.9809 1.704 48.1977 2.09967 47.6706 2.85415C47.1518 3.59689 46.8961 4.66533 46.8961 5.993H47.3461ZM49.9691 2.154C50.8015 2.154 51.4346 2.49149 51.8691 3.12964C52.3117 3.77962 52.5601 4.76037 52.5601 6.057H53.0101C53.0101 4.71363 52.7545 3.63038 52.241 2.87636C51.7196 2.11051 50.9447 1.704 49.9691 1.704V2.154ZM52.5601 6.057C52.5601 7.33792 52.3156 8.30186 51.8759 8.93924C51.4445 9.56447 50.8119 9.896 49.9691 9.896V10.346C50.9502 10.346 51.7256 9.94953 52.2463 9.19477C52.7586 8.45214 53.0101 7.38408 53.0101 6.057H52.5601ZM61.0077 7.113L61.0961 7.31989L61.0967 7.31965L61.0077 7.113ZM56.4477 1.833L56.3007 1.66266L56.1314 1.80872L56.2764 1.9789L56.4477 1.833ZM57.5517 3.129L57.3804 3.2749L57.5283 3.44847L57.6999 3.29833L57.5517 3.129ZM59.9517 5.689L59.8681 5.48009L59.8679 5.48017L59.9517 5.689ZM56.1597 11.625H55.9347V11.85H56.1597V11.625ZM64.2717 11.625V11.85H64.4967V11.625H64.2717ZM64.2717 9.865H64.4967V9.64H64.2717V9.865ZM58.1277 9.865L57.904 9.84074L57.877 10.09H58.1277V9.865ZM61.0967 7.31965C63.3232 6.36077 64.5287 5.00553 64.5287 3.337H64.0787C64.0787 4.74047 63.0761 5.97723 60.9187 6.90635L61.0967 7.31965ZM64.5287 3.337C64.5287 1.37782 62.7802 0.0239997 60.4637 0.0239997V0.474C62.6272 0.474 64.0787 1.71218 64.0787 3.337H64.5287ZM60.4637 0.0239997C58.9789 0.0239997 57.5041 0.624129 56.3007 1.66266L56.5947 2.00334C57.7273 1.02587 59.1005 0.474 60.4637 0.474V0.0239997ZM56.2764 1.9789L57.3804 3.2749L57.723 2.9831L56.619 1.68709L56.2764 1.9789ZM57.6999 3.29833C58.5606 2.54515 59.4534 2.202 60.3837 2.202V1.752C59.33 1.752 58.3348 2.14485 57.4035 2.95967L57.6999 3.29833ZM60.3837 2.202C60.9702 2.202 61.4285 2.33199 61.7333 2.54377C62.0304 2.75023 62.1907 3.039 62.1907 3.401H62.6407C62.6407 2.883 62.401 2.45977 61.9901 2.17423C61.5868 1.89401 61.0292 1.752 60.3837 1.752V2.202ZM62.1907 3.401C62.1907 3.76438 62.0322 4.11217 61.6604 4.45832C61.2836 4.80912 60.6967 5.14864 59.8681 5.48009L60.0353 5.89791C60.8866 5.55736 61.5318 5.19288 61.967 4.78768C62.4072 4.37783 62.6407 3.91762 62.6407 3.401H62.1907ZM59.8679 5.48017C58.3574 6.086 57.356 6.72835 56.7439 7.6902C56.134 8.6485 55.9347 9.887 55.9347 11.625H56.3847C56.3847 9.907 56.5853 8.7775 57.1235 7.9318C57.6594 7.08965 58.554 6.492 60.0354 5.89783L59.8679 5.48017ZM56.1597 11.85H64.2717V11.4H56.1597V11.85ZM64.4967 11.625V9.865H64.0467V11.625H64.4967ZM64.2717 9.64H58.1277V10.09H64.2717V9.64ZM58.3514 9.88926C58.419 9.26548 58.5975 8.85649 58.9891 8.49161C59.397 8.1115 60.0468 7.76845 61.0961 7.31989L60.9192 6.90611C59.8726 7.35355 59.1544 7.7225 58.6823 8.16239C58.1939 8.61751 57.9804 9.13652 57.904 9.84074L58.3514 9.88926Z" fill="#7A7CEA"/>
</svg>
