<svg width="61" height="12" viewBox="0 0 61 12" fill="none" xmlns="http://www.w3.org/2000/svg">
<path d="M4.88675 11.849C7.46275 11.849 9.23875 10.505 9.23875 8.329C9.23875 6.521 8.10275 5.433 5.27075 4.969C3.47875 4.665 2.72675 4.265 2.72675 3.401C2.72675 2.473 3.70275 1.865 5.01475 1.865C5.97475 1.865 7.03075 2.137 7.84675 2.761L8.79075 1.401C7.60675 0.521 6.39075 0.200999 4.96675 0.200999C2.63075 0.200999 0.85475 1.513 0.85475 3.497C0.85475 5.241 2.13475 6.217 4.79075 6.585C6.69475 6.857 7.36675 7.433 7.36675 8.361C7.36675 9.481 6.31075 10.137 4.88675 10.137C3.59075 10.137 2.37475 9.657 1.43075 8.953L0.53475 10.377C1.59075 11.257 3.14275 11.849 4.88675 11.849ZM19.2034 0.424999H10.1314V2.089H13.7314V11.625H15.6034V2.089H19.2034V0.424999ZM22.8128 9.913V6.777H28.4288V5.113H22.8128V2.105H28.7008V0.424999H20.9568V11.625H28.7968V9.913H22.8128ZM35.9744 0.424999H31.2224V11.625H33.0784V8.233H35.9744C38.7264 8.233 39.9904 6.329 39.9904 4.297C39.9904 2.313 38.7264 0.424999 35.9744 0.424999ZM35.8624 6.537H33.0784V2.121H35.8624C37.4784 2.121 38.1024 3.225 38.1024 4.361C38.1024 5.465 37.4784 6.537 35.8624 6.537ZM49.491 11.849C52.451 11.849 54.275 9.609 54.275 5.993C54.275 2.377 52.531 0.200999 49.619 0.200999C46.627 0.200999 44.819 2.425 44.819 6.057C44.819 9.689 46.563 11.849 49.491 11.849ZM49.555 10.121C47.715 10.121 46.707 8.665 46.707 5.993C46.707 3.385 47.715 1.929 49.555 1.929C51.363 1.929 52.371 3.417 52.371 6.057C52.371 8.665 51.379 10.121 49.555 10.121ZM59.7936 0.329L56.0016 1.737V3.577L58.1456 2.777V11.625H60.0176V0.329H59.7936Z" fill="#7A7CEA"/>
<path d="M5.27075 4.969L5.23312 5.19083L5.23437 5.19104L5.27075 4.969ZM7.84675 2.761L7.71007 2.93973L7.89724 3.08285L8.03159 2.8893L7.84675 2.761ZM8.79075 1.401L8.97559 1.5293L9.0998 1.35035L8.92497 1.22042L8.79075 1.401ZM4.79075 6.585L4.82257 6.36226L4.82163 6.36213L4.79075 6.585ZM1.43075 8.953L1.56526 8.77263L1.37002 8.62703L1.24031 8.83317L1.43075 8.953ZM0.53475 10.377L0.344312 10.2572L0.239462 10.4238L0.390709 10.5499L0.53475 10.377ZM4.88675 12.074C6.21154 12.074 7.35311 11.7285 8.16863 11.0812C8.98934 10.4298 9.46375 9.48446 9.46375 8.329H9.01375C9.01375 9.34954 8.60017 10.1642 7.88887 10.7288C7.17239 11.2975 6.13796 11.624 4.88675 11.624V12.074ZM9.46375 8.329C9.46375 7.37153 9.1597 6.58116 8.46457 5.97537C7.78059 5.3793 6.74022 4.98176 5.30713 4.74696L5.23437 5.19104C6.63328 5.42024 7.57691 5.7987 8.16893 6.31463C8.7498 6.82084 9.01375 7.47847 9.01375 8.329H9.46375ZM5.30838 4.74717C4.41475 4.59557 3.81524 4.42462 3.4421 4.20182C3.25952 4.0928 3.14002 3.9764 3.06506 3.85177C2.99082 3.72836 2.95175 3.58283 2.95175 3.401H2.50175C2.50175 3.65117 2.55668 3.87964 2.67944 4.08373C2.80148 4.2866 2.98198 4.4512 3.2114 4.58818C3.66226 4.85738 4.33475 5.03843 5.23312 5.19083L5.30838 4.74717ZM2.95175 3.401C2.95175 3.02705 3.14467 2.70795 3.50228 2.47306C3.86448 2.23514 4.39031 2.09 5.01475 2.09V1.64C4.32719 1.64 3.70902 1.79886 3.25522 2.09694C2.79683 2.39805 2.50175 2.84695 2.50175 3.401H2.95175ZM5.01475 2.09C5.93686 2.09 6.94157 2.35205 7.71007 2.93973L7.98343 2.58227C7.11993 1.92195 6.01264 1.64 5.01475 1.64V2.09ZM8.03159 2.8893L8.97559 1.5293L8.60591 1.2727L7.66191 2.6327L8.03159 2.8893ZM8.92497 1.22042C7.69567 0.30675 6.43033 -0.0240006 4.96675 -0.0240006V0.425999C6.35117 0.425999 7.51783 0.73525 8.65653 1.58158L8.92497 1.22042ZM4.96675 -0.0240006C2.56097 -0.0240006 0.62975 1.3405 0.62975 3.497H1.07975C1.07975 1.6855 2.70054 0.425999 4.96675 0.425999V-0.0240006ZM0.62975 3.497C0.62975 4.43368 0.978152 5.18105 1.68846 5.73449C2.38603 6.27799 3.41592 6.62166 4.75987 6.80787L4.82163 6.36213C3.50958 6.18034 2.57147 5.85201 1.96504 5.37951C1.37135 4.91694 1.07975 4.30432 1.07975 3.497H0.62975ZM4.75893 6.80774C5.70002 6.94218 6.29979 7.14783 6.66079 7.40924C7.00424 7.65795 7.14175 7.96392 7.14175 8.361H7.59175C7.59175 7.83008 7.39326 7.38405 6.92472 7.04476C6.47371 6.71817 5.78548 6.49982 4.82257 6.36226L4.75893 6.80774ZM7.14175 8.361C7.14175 8.83979 6.92033 9.21738 6.53325 9.48362C6.13915 9.75467 5.56771 9.912 4.88675 9.912V10.362C5.62979 10.362 6.29835 10.1913 6.78825 9.85439C7.28517 9.51262 7.59175 9.00221 7.59175 8.361H7.14175ZM4.88675 9.912C3.64588 9.912 2.4761 9.4519 1.56526 8.77263L1.29624 9.13337C2.2734 9.8621 3.53562 10.362 4.88675 10.362V9.912ZM1.24031 8.83317L0.344312 10.2572L0.725188 10.4968L1.62119 9.07283L1.24031 8.83317ZM0.390709 10.5499C1.48981 11.4658 3.0937 12.074 4.88675 12.074V11.624C3.1918 11.624 1.69169 11.0482 0.678792 10.2041L0.390709 10.5499ZM19.2034 0.424999H19.4284V0.199999H19.2034V0.424999ZM10.1314 0.424999V0.199999H9.90637V0.424999H10.1314ZM10.1314 2.089H9.90637V2.314H10.1314V2.089ZM13.7314 2.089H13.9564V1.864H13.7314V2.089ZM13.7314 11.625H13.5064V11.85H13.7314V11.625ZM15.6034 11.625V11.85H15.8284V11.625H15.6034ZM15.6034 2.089V1.864H15.3784V2.089H15.6034ZM19.2034 2.089V2.314H19.4284V2.089H19.2034ZM19.2034 0.199999H10.1314V0.65H19.2034V0.199999ZM9.90637 0.424999V2.089H10.3564V0.424999H9.90637ZM10.1314 2.314H13.7314V1.864H10.1314V2.314ZM13.5064 2.089V11.625H13.9564V2.089H13.5064ZM13.7314 11.85H15.6034V11.4H13.7314V11.85ZM15.8284 11.625V2.089H15.3784V11.625H15.8284ZM15.6034 2.314H19.2034V1.864H15.6034V2.314ZM19.4284 2.089V0.424999H18.9784V2.089H19.4284ZM22.8127 9.913H22.5877V10.138H22.8127V9.913ZM22.8127 6.777V6.552H22.5877V6.777H22.8127ZM28.4287 6.777V7.002H28.6537V6.777H28.4287ZM28.4287 5.113H28.6537V4.888H28.4287V5.113ZM22.8127 5.113H22.5877V5.338H22.8127V5.113ZM22.8127 2.105V1.88H22.5877V2.105H22.8127ZM28.7008 2.105V2.33H28.9258V2.105H28.7008ZM28.7008 0.424999H28.9258V0.199999H28.7008V0.424999ZM20.9568 0.424999V0.199999H20.7318V0.424999H20.9568ZM20.9568 11.625H20.7318V11.85H20.9568V11.625ZM28.7967 11.625V11.85H29.0217V11.625H28.7967ZM28.7967 9.913H29.0217V9.688H28.7967V9.913ZM23.0378 9.913V6.777H22.5877V9.913H23.0378ZM22.8127 7.002H28.4287V6.552H22.8127V7.002ZM28.6537 6.777V5.113H28.2038V6.777H28.6537ZM28.4287 4.888H22.8127V5.338H28.4287V4.888ZM23.0378 5.113V2.105H22.5877V5.113H23.0378ZM22.8127 2.33H28.7008V1.88H22.8127V2.33ZM28.9258 2.105V0.424999H28.4757V2.105H28.9258ZM28.7008 0.199999H20.9568V0.65H28.7008V0.199999ZM20.7318 0.424999V11.625H21.1817V0.424999H20.7318ZM20.9568 11.85H28.7967V11.4H20.9568V11.85ZM29.0217 11.625V9.913H28.5718V11.625H29.0217ZM28.7967 9.688H22.8127V10.138H28.7967V9.688ZM31.2224 0.424999V0.199999H30.9974V0.424999H31.2224ZM31.2224 11.625H30.9974V11.85H31.2224V11.625ZM33.0784 11.625V11.85H33.3034V11.625H33.0784ZM33.0784 8.233V8.008H32.8534V8.233H33.0784ZM33.0784 6.537H32.8534V6.762H33.0784V6.537ZM33.0784 2.121V1.896H32.8534V2.121H33.0784ZM35.9744 0.199999H31.2224V0.65H35.9744V0.199999ZM30.9974 0.424999V11.625H31.4474V0.424999H30.9974ZM31.2224 11.85H33.0784V11.4H31.2224V11.85ZM33.3034 11.625V8.233H32.8534V11.625H33.3034ZM33.0784 8.458H35.9744V8.008H33.0784V8.458ZM35.9744 8.458C37.406 8.458 38.4735 7.96069 39.1813 7.1779C39.8854 6.39905 40.2154 5.35778 40.2154 4.297H39.7654C39.7654 5.26822 39.4633 6.19494 38.8475 6.8761C38.2352 7.55331 37.2948 8.008 35.9744 8.008V8.458ZM40.2154 4.297C40.2154 3.25894 39.8847 2.23343 39.1802 1.46496C38.4724 0.692815 37.4053 0.199999 35.9744 0.199999V0.65C37.2954 0.65 38.2363 1.10118 38.8485 1.76904C39.4641 2.44057 39.7654 3.35106 39.7654 4.297H40.2154ZM35.8624 6.312H33.0784V6.762H35.8624V6.312ZM33.3034 6.537V2.121H32.8534V6.537H33.3034ZM33.0784 2.346H35.8624V1.896H33.0784V2.346ZM35.8624 2.346C36.6149 2.346 37.1085 2.60055 37.4175 2.96136C37.7316 3.32809 37.8774 3.83102 37.8774 4.361H38.3274C38.3274 3.75498 38.1612 3.13791 37.7593 2.66864C37.3523 2.19345 36.7259 1.896 35.8624 1.896V2.346ZM37.8774 4.361C37.8774 4.87344 37.7324 5.35944 37.4196 5.71419C37.1113 6.06386 36.6171 6.312 35.8624 6.312V6.762C36.7236 6.762 37.3495 6.47414 37.7571 6.01181C38.1603 5.55456 38.3274 4.95256 38.3274 4.361H37.8774ZM49.491 12.074C51.0328 12.074 52.2951 11.4879 53.1673 10.4193C54.0352 9.35593 54.5 7.8363 54.5 5.993H54.05C54.05 7.7657 53.6028 9.17407 52.8187 10.1347C52.0389 11.0901 50.9092 11.624 49.491 11.624V12.074ZM54.5 5.993C54.5 4.15188 54.0563 2.6482 53.2144 1.6001C52.3676 0.545763 51.1363 -0.0240006 49.619 -0.0240006V0.425999C51.0137 0.425999 52.1104 0.944237 52.8636 1.8819C53.6217 2.8258 54.05 4.21812 54.05 5.993H54.5ZM49.619 -0.0240006C48.0624 -0.0240006 46.7957 0.557201 45.9228 1.62456C45.0545 2.68636 44.594 4.20636 44.594 6.057H45.044C45.044 4.27563 45.4875 2.86764 46.2712 1.90944C47.0503 0.956798 48.1836 0.425999 49.619 0.425999V-0.0240006ZM44.594 6.057C44.594 7.9059 45.0376 9.40991 45.8819 10.4563C46.7312 11.5089 47.9666 12.074 49.491 12.074V11.624C48.0874 11.624 46.9868 11.1091 46.2321 10.1737C45.4724 9.23209 45.044 7.8401 45.044 6.057H44.594ZM49.555 9.896C48.7035 9.896 48.0631 9.56395 47.6261 8.93115C47.1806 8.28599 46.932 7.30627 46.932 5.993H46.482C46.482 7.35173 46.7374 8.43601 47.2559 9.18685C47.7829 9.95005 48.5665 10.346 49.555 10.346V9.896ZM46.932 5.993C46.932 4.71266 47.1803 3.74911 47.6255 3.11185C48.0624 2.48633 48.7032 2.154 49.555 2.154V1.704C48.5668 1.704 47.7836 2.09967 47.2565 2.85415C46.7377 3.59689 46.482 4.66533 46.482 5.993H46.932ZM49.555 2.154C50.3874 2.154 51.0205 2.49149 51.455 3.12964C51.8976 3.77962 52.146 4.76037 52.146 6.057H52.596C52.596 4.71363 52.3404 3.63038 51.827 2.87636C51.3055 2.11051 50.5306 1.704 49.555 1.704V2.154ZM52.146 6.057C52.146 7.33792 51.9015 8.30186 51.4618 8.93924C51.0305 9.56447 50.3979 9.896 49.555 9.896V10.346C50.5361 10.346 51.3115 9.94953 51.8322 9.19477C52.3445 8.45214 52.596 7.38408 52.596 6.057H52.146ZM59.7936 0.329V0.104H59.7532L59.7153 0.118071L59.7936 0.329ZM56.0016 1.737L55.9233 1.52607L55.7766 1.58053V1.737H56.0016ZM56.0016 3.577H55.7766V3.90111L56.0803 3.7878L56.0016 3.577ZM58.1456 2.777H58.3706V2.45289L58.067 2.5662L58.1456 2.777ZM58.1456 11.625H57.9206V11.85H58.1456V11.625ZM60.0176 11.625V11.85H60.2426V11.625H60.0176ZM60.0176 0.329H60.2426V0.104H60.0176V0.329ZM59.7153 0.118071L55.9233 1.52607L56.0799 1.94793L59.8719 0.539928L59.7153 0.118071ZM55.7766 1.737V3.577H56.2266V1.737H55.7766ZM56.0803 3.7878L58.2243 2.9878L58.067 2.5662L55.923 3.3662L56.0803 3.7878ZM57.9206 2.777V11.625H58.3706V2.777H57.9206ZM58.1456 11.85H60.0176V11.4H58.1456V11.85ZM60.2426 11.625V0.329H59.7926V11.625H60.2426ZM60.0176 0.104H59.7936V0.553999H60.0176V0.104Z" fill="#7A7CEA"/>
</svg>
